<svg class="animated" id="freepik_stories-envelope" xmlns="http://www.w3.org/2000/svg" viewBox="0 0 500 500" version="1.1" xmlns:xlink="http://www.w3.org/1999/xlink" xmlns:svgjs="http://svgjs.com/svgjs"><style>svg#freepik_stories-envelope:not(.animated) .animable {opacity: 0;}svg#freepik_stories-envelope.animated #freepik--Floor--inject-141 {animation: 1s 1 forwards cubic-bezier(.36,-0.01,.5,1.38) zoomIn;animation-delay: 0s;}svg#freepik_stories-envelope.animated #freepik--Shadows--inject-141 {animation: 1s 1 forwards cubic-bezier(.36,-0.01,.5,1.38) zoomIn;animation-delay: 0s;}svg#freepik_stories-envelope.animated #freepik--Plants--inject-141 {animation: 1s 1 forwards cubic-bezier(.36,-0.01,.5,1.38) zoomIn;animation-delay: 0s;}svg#freepik_stories-envelope.animated #freepik--Envelopes--inject-141 {animation: 1s 1 forwards cubic-bezier(.36,-0.01,.5,1.38) slideRight,3s Infinite  linear floating;animation-delay: 0s,1s;}svg#freepik_stories-envelope.animated #freepik--Stamps--inject-141 {animation: 1s 1 forwards cubic-bezier(.36,-0.01,.5,1.38) slideLeft;animation-delay: 0s;}svg#freepik_stories-envelope.animated #freepik--Character--inject-141 {animation: 1s 1 forwards cubic-bezier(.36,-0.01,.5,1.38) zoomOut;animation-delay: 0s;}            @keyframes zoomIn {                0% {                    opacity: 0;                    transform: scale(0.5);                }                100% {                    opacity: 1;                    transform: scale(1);                }            }                    @keyframes slideRight {                0% {                    opacity: 0;                    transform: translateX(30px);                }                100% {                    opacity: 1;                    transform: translateX(0);                }            }                    @keyframes floating {                0% {                    opacity: 1;                    transform: translateY(0px);                }                50% {                    transform: translateY(-10px);                }                100% {                    opacity: 1;                    transform: translateY(0px);                }            }                    @keyframes slideLeft {                0% {                    opacity: 0;                    transform: translateX(-30px);                }                100% {                    opacity: 1;                    transform: translateX(0);                }            }                    @keyframes zoomOut {                0% {                    opacity: 0;                    transform: scale(1.5);                }                100% {                    opacity: 1;                    transform: scale(1);                }            }        </style><g id="freepik--Floor--inject-141" class="animable" style="transform-origin: 249.81px 335.28px;"><ellipse id="freepik--floor--inject-141" cx="249.81" cy="335.28" rx="239.44" ry="138.24" style="fill: rgb(240, 240, 240); transform-origin: 249.81px 335.28px;" class="animable"></ellipse></g><g id="freepik--Shadows--inject-141" class="animable" style="transform-origin: 233.449px 335.244px;"><path id="freepik--Shadow--inject-141" d="M54,368.65a3.11,3.11,0,0,1-2.51-1,2.22,2.22,0,0,0-1.67-.58H49.5l-1.29.1a2.3,2.3,0,0,1-.37,0,3.23,3.23,0,0,1-2.5-1,1.38,1.38,0,0,1-.28-1.19.29.29,0,0,0-.07-.27,2.25,2.25,0,0,0-1.65-.57l-.29,0h-.37a3.23,3.23,0,0,1-2.5-1A1.38,1.38,0,0,1,39.9,362a.29.29,0,0,0-.07-.27,2.25,2.25,0,0,0-1.65-.56h-.66a3.21,3.21,0,0,1-2.5-1,1.38,1.38,0,0,1-.28-1.19.27.27,0,0,0-.07-.26,2.19,2.19,0,0,0-1.65-.57h-.66a3.21,3.21,0,0,1-2.5-1,1.34,1.34,0,0,1-.27-1.19.31.31,0,0,0-.08-.26,2.21,2.21,0,0,0-1.65-.57H27.2a3.21,3.21,0,0,1-2.5-1,1.34,1.34,0,0,1-.27-1.19l.18-.74c.05-.23-.29-.58-.95-.74-1.39-.35-1.83-1.17-1.79-1.81.05-.9.94-1.59,2.27-1.75l.54-.07a1.85,1.85,0,0,0,1.24-.55.33.33,0,0,0,.08-.23l-.14-1a1.41,1.41,0,0,1,.37-1.12,3.31,3.31,0,0,1,2.44-.91h.2l1.24.06a2.29,2.29,0,0,0,1.63-.55c.12-.14.11-.23.1-.26l-.08-.62a1.44,1.44,0,0,1,.37-1.13,3.3,3.3,0,0,1,2.44-.91h.2l1.24.05a2.25,2.25,0,0,0,1.62-.54.31.31,0,0,0,.11-.26l-.08-.63a1.37,1.37,0,0,1,.36-1.12,3.34,3.34,0,0,1,2.45-.91h.2l1.23.05a2.32,2.32,0,0,0,1.63-.54c.12-.14.11-.24.1-.27l-.08-.62a1.41,1.41,0,0,1,.37-1.12,3.27,3.27,0,0,1,2.44-.91h.2l1.24.05a2.23,2.23,0,0,0,1.62-.54c.13-.14.12-.23.11-.26l-.08-.63a1.39,1.39,0,0,1,.37-1.12,3.3,3.3,0,0,1,2.44-.91h.2l1.91.08a1.91,1.91,0,0,0,1.71-.69l.12-.31c.39-1,1.72-1.39,2.75-1.39a3.16,3.16,0,0,1,2.51,1,2.14,2.14,0,0,0,1.66.59h.28l1.29-.11h.37a3.18,3.18,0,0,1,2.5,1,1.38,1.38,0,0,1,.28,1.19.28.28,0,0,0,.08.26,2.17,2.17,0,0,0,1.65.57h.28l.37,0a3.18,3.18,0,0,1,2.5,1,1.38,1.38,0,0,1,.28,1.19.28.28,0,0,0,.08.26,2.17,2.17,0,0,0,1.65.57H75l.37,0a3.18,3.18,0,0,1,2.5,1,1.37,1.37,0,0,1,.28,1.19.28.28,0,0,0,.08.26,2.21,2.21,0,0,0,1.65.57h.28l.37,0a3.18,3.18,0,0,1,2.5,1,1.37,1.37,0,0,1,.28,1.19.29.29,0,0,0,.08.26,2.2,2.2,0,0,0,1.64.57h.29l.37,0a3.18,3.18,0,0,1,2.5,1,1.36,1.36,0,0,1,.28,1.18l-.18.75c-.06.23.29.57.94.74,1.39.35,1.83,1.16,1.79,1.81,0,.9-.94,1.58-2.26,1.75l-.54.07a1.86,1.86,0,0,0-1.24.54c-.1.13-.09.21-.08.24l.13,1a1.39,1.39,0,0,1-.37,1.12,3.3,3.3,0,0,1-2.44.91H84l-1.23-.05a2.26,2.26,0,0,0-1.63.54.32.32,0,0,0-.11.27l.08.62a1.37,1.37,0,0,1-.36,1.12,3.31,3.31,0,0,1-2.44.91h-.21l-1.23-.06a2.32,2.32,0,0,0-1.63.54c-.12.15-.11.24-.1.27l.08.62a1.44,1.44,0,0,1-.37,1.13,3.31,3.31,0,0,1-2.44.91h-.2l-1.24,0a2.25,2.25,0,0,0-1.62.54.31.31,0,0,0-.11.26l.08.63A1.37,1.37,0,0,1,69,362a3.3,3.3,0,0,1-2.44.91h-.2l-1.23-.06a2.32,2.32,0,0,0-1.63.54.37.37,0,0,0-.11.27l.09.62a1.44,1.44,0,0,1-.37,1.13,3.31,3.31,0,0,1-2.44.9h-.2l-1.91-.08a1.92,1.92,0,0,0-1.72.69l-.12.31C56.32,368.28,55,368.64,54,368.65Z" style="fill: rgb(224, 224, 224); transform-origin: 56.445px 348.361px;" class="animable"></path><path id="freepik--shadow--inject-141" d="M93.78,392.56a3.11,3.11,0,0,1-2.51-1A2.22,2.22,0,0,0,89.6,391h-.27l-1.29.11h-.38a3.21,3.21,0,0,1-2.5-1,1.34,1.34,0,0,1-.27-1.19.31.31,0,0,0-.08-.26,2.19,2.19,0,0,0-1.65-.57H82.5a3.21,3.21,0,0,1-2.5-1,1.34,1.34,0,0,1-.27-1.19.31.31,0,0,0-.08-.26,2.19,2.19,0,0,0-1.65-.57h-.28l-.37,0a3.22,3.22,0,0,1-2.51-1,1.37,1.37,0,0,1-.27-1.19.31.31,0,0,0-.08-.26,2.19,2.19,0,0,0-1.65-.57h-.28l-.38,0a3.21,3.21,0,0,1-2.5-1,1.36,1.36,0,0,1-.27-1.19.28.28,0,0,0-.08-.26,2.23,2.23,0,0,0-1.65-.57H67.4l-.37,0a3.22,3.22,0,0,1-2.51-1,1.36,1.36,0,0,1-.27-1.19l.18-.74c.06-.23-.29-.57-1-.74-1.38-.35-1.83-1.16-1.79-1.81.06-.9,1-1.58,2.27-1.75l.54-.07a1.86,1.86,0,0,0,1.24-.54.36.36,0,0,0,.08-.24l-.13-1a1.37,1.37,0,0,1,.36-1.12,3.33,3.33,0,0,1,2.44-.91h.21l1.23.05a2.27,2.27,0,0,0,1.63-.54c.12-.14.11-.24.1-.27l-.08-.62a1.41,1.41,0,0,1,.37-1.12,3.31,3.31,0,0,1,2.44-.91h.2l1.24.05a2.25,2.25,0,0,0,1.62-.54.31.31,0,0,0,.11-.26l-.08-.63a1.39,1.39,0,0,1,.37-1.12,3.3,3.3,0,0,1,2.44-.91h.2l1.23.05a2.27,2.27,0,0,0,1.63-.54.35.35,0,0,0,.11-.26l-.09-.63a1.41,1.41,0,0,1,.37-1.12,3.31,3.31,0,0,1,2.44-.91h.2l1.24.05a2.32,2.32,0,0,0,1.63-.53c.12-.15.11-.24.1-.27l-.08-.62a1.44,1.44,0,0,1,.37-1.13,3.31,3.31,0,0,1,2.44-.9h.2l1.9.08a1.92,1.92,0,0,0,1.72-.69l.12-.31c.39-1,1.72-1.39,2.75-1.39a3.13,3.13,0,0,1,2.51,1,2.2,2.2,0,0,0,1.66.58h.28l1.29-.11h.37a3.25,3.25,0,0,1,2.51,1,1.37,1.37,0,0,1,.27,1.19.31.31,0,0,0,.08.27,2.23,2.23,0,0,0,1.65.57l.28,0h.38a3.17,3.17,0,0,1,2.49,1,1.35,1.35,0,0,1,.28,1.19.31.31,0,0,0,.08.27,2.21,2.21,0,0,0,1.65.56h.65a3.18,3.18,0,0,1,2.5,1,1.38,1.38,0,0,1,.28,1.19.28.28,0,0,0,.08.26,2.17,2.17,0,0,0,1.65.57h.65a3.18,3.18,0,0,1,2.5,1,1.38,1.38,0,0,1,.28,1.19.28.28,0,0,0,.08.26,2.17,2.17,0,0,0,1.65.57h.28l.37,0a3.18,3.18,0,0,1,2.5,1,1.38,1.38,0,0,1,.28,1.19l-.18.74c-.06.23.29.57.95.74,1.38.35,1.83,1.17,1.79,1.81-.06.9-1,1.59-2.27,1.75l-.54.07a1.9,1.9,0,0,0-1.24.54c-.1.13-.09.21-.08.24l.13,1a1.4,1.4,0,0,1-.36,1.12,3.34,3.34,0,0,1-2.45.91h-.2l-1.23-.06a2.27,2.27,0,0,0-1.63.54.37.37,0,0,0-.11.27l.09.62a1.44,1.44,0,0,1-.37,1.13,3.31,3.31,0,0,1-2.44.9H118l-1.24-.05a2.27,2.27,0,0,0-1.63.54c-.12.14-.11.23-.1.26l.08.63a1.41,1.41,0,0,1-.37,1.12,3.3,3.3,0,0,1-2.44.91h-.2l-1.24-.05a2.25,2.25,0,0,0-1.62.54.32.32,0,0,0-.11.27l.08.62a1.37,1.37,0,0,1-.36,1.12,3.33,3.33,0,0,1-2.44.91h-.21l-1.23-.05a2.27,2.27,0,0,0-1.63.54c-.12.14-.11.23-.1.26l.08.63a1.42,1.42,0,0,1-.37,1.12,3.31,3.31,0,0,1-2.44.91h-.2l-1.91-.08a1.94,1.94,0,0,0-1.72.69l-.11.31C96.14,392.19,94.8,392.56,93.78,392.56Z" style="fill: rgb(224, 224, 224); transform-origin: 96.225px 372.27px;" class="animable"></path><ellipse id="freepik--shadow--inject-141" cx="396.59" cy="288.49" rx="48.44" ry="27.97" style="fill: rgb(224, 224, 224); transform-origin: 396.59px 288.49px;" class="animable"></ellipse><polygon id="freepik--shadow--inject-141" points="139.23 356.5 94.55 330.7 265.15 232.2 309.83 258 139.23 356.5" style="fill: rgb(224, 224, 224); transform-origin: 202.19px 294.35px;" class="animable"></polygon><polygon id="freepik--shadow--inject-141" points="94.46 330.75 49.77 304.95 220.38 206.46 265.06 232.25 94.46 330.75" style="fill: rgb(224, 224, 224); transform-origin: 157.415px 268.605px;" class="animable"></polygon><path id="freepik--shadow--inject-141" d="M247.43,462.76l-113-65.24c-2.9-1.68-2.9-4.41,0-6.09l167.36-96.62a11.63,11.63,0,0,1,10.53,0l113,65.24c2.91,1.68,2.91,4.41,0,6.08L258,462.76A11.65,11.65,0,0,1,247.43,462.76Z" style="fill: rgb(224, 224, 224); transform-origin: 279.879px 378.789px;" class="animable"></path></g><g id="freepik--Plants--inject-141" class="animable" style="transform-origin: 248.569px 265.363px;"><g id="freepik--plants--inject-141" class="animable" style="transform-origin: 439.428px 247.989px;"><path d="M420.78,259.28s-1.46-12,2.21-22.54,10.34-18.08,17.68-20.45,15,3.08,8.14,9.71-20,14.83-22.3,34.07Z" style="fill: rgb(236, 84, 36); transform-origin: 435.989px 237.898px;" id="elzpldfupyxj" class="animable"></path><g id="elcynkzdkxvxr"><g style="opacity: 0.15; transform-origin: 435.989px 237.898px;" class="animable"><path d="M420.78,259.28s-1.46-12,2.21-22.54,10.34-18.08,17.68-20.45,15,3.08,8.14,9.71-20,14.83-22.3,34.07Z" id="elrx54bq2guyf" class="animable" style="transform-origin: 435.989px 237.898px;"></path></g></g><path d="M422.25,255.72h-.09a.4.4,0,0,1-.34-.47c3.27-21.32,16.37-33,22.84-36.21a.41.41,0,1,1,.36.73c-6.33,3.14-19.17,14.62-22.39,35.61A.41.41,0,0,1,422.25,255.72Z" style="fill: rgb(255, 255, 255); transform-origin: 433.554px 237.346px;" id="ellxzwd71flas" class="animable"></path><path d="M458.34,243.31c-.28,1.59-1.66,2.73-3,3.69s-2.74,2-3.19,3.53c-.9,3.14,2.67,6.35,1.63,9.44a5.08,5.08,0,0,1-2.88,2.78,32.22,32.22,0,0,1-3.22,1.12,14.84,14.84,0,0,1-1.6.27,7.28,7.28,0,0,0-4.42,1.61c-1.87,1.77-1.86,4.69-2.66,7.14a10.63,10.63,0,0,1-6.19,6.44c-2.4.95-6.24,1.31-7.15.38-.7-.71.13-3.58-.08-4.55a40.24,40.24,0,0,1-.9-7.58,13.81,13.81,0,0,0-.36-3.45c-.32-1.26-.63-2.52-.94-3.79s-.92-2.36-.77-3.86a14.69,14.69,0,0,1,1.24-4.13c.56-1.3,1.12-2.6,1.69-3.89a20.3,20.3,0,0,1,2.42-4.38,10.62,10.62,0,0,1,7.45-4c2.4-.19,5,.54,7.31-.16s4.39-1.86,6.79-2.28a8.47,8.47,0,0,1,7.2,1.74A4.48,4.48,0,0,1,458.34,243.31Z" style="fill: rgb(236, 84, 36); transform-origin: 440.475px 258.848px;" id="elwozsl3697al" class="animable"></path><path d="M426.18,273.07h0a.37.37,0,0,1-.36-.37c.38-22.92,22.26-31.67,27.65-32.6a.35.35,0,0,1,.42.29.36.36,0,0,1-.29.42c-5.28.92-26.68,9.48-27.05,31.9A.36.36,0,0,1,426.18,273.07Z" style="fill: rgb(255, 255, 255); transform-origin: 439.858px 256.581px;" id="elbxp04eb9ll9" class="animable"></path><path d="M448.63,255.91a.33.33,0,0,1-.21,0,19.39,19.39,0,0,0-16.49-.5.38.38,0,0,1-.48-.2.37.37,0,0,1,.2-.48,20.11,20.11,0,0,1,17.15.56.36.36,0,0,1,.12.5A.34.34,0,0,1,448.63,255.91Z" style="fill: rgb(255, 255, 255); transform-origin: 440.199px 254.503px;" id="el5bjlper0kzf" class="animable"></path></g><g id="freepik--plants--inject-141" class="animable" style="transform-origin: 64.9379px 274.406px;"><path d="M90,286c.1-8.18-5.62-25.21-14-35.94S54.37,231.37,44.85,234.5C36,237.42,36.79,249,47.42,256.83s26.62,17.65,31.18,31l9.69,16.41Z" style="fill: rgb(55, 71, 79); transform-origin: 64.3885px 269.026px;" id="el34aj0s0ews7" class="animable"></path><path d="M90.45,297.18a.59.59,0,0,1-.53-.49c-5.15-28-27.48-51-40.95-56.17a.6.6,0,0,1-.34-.77.58.58,0,0,1,.77-.34c13.73,5.28,36.47,28.64,41.69,57.07a.59.59,0,0,1-.48.69Z" style="fill: rgb(255, 255, 255); transform-origin: 69.8456px 268.273px;" id="elflvb6904rzb" class="animable"></path><path d="M86.07,315c-1.26-4.61-6.79-12.27-15.8-18.65-10-7.06-22.66-10.41-25.53-15.84-3.45-6.53,2.09-12.59,12.41-11.19s28.3,15.72,30.95,37Z" style="fill: rgb(69, 90, 100); transform-origin: 65.9075px 292.058px;" id="el9kn6f8ewcw" class="animable"></path><path d="M88.12,310.21a.6.6,0,0,1-.51-.4c-8.28-24-26.44-32.66-34.88-33.86a.6.6,0,0,1-.51-.68.59.59,0,0,1,.67-.51c9.34,1.33,27.4,10.12,35.85,34.66a.6.6,0,0,1-.37.76A.52.52,0,0,1,88.12,310.21Z" style="fill: rgb(255, 255, 255); transform-origin: 70.493px 292.484px;" id="ellhzxppqcew" class="animable"></path></g></g><g id="freepik--Envelopes--inject-141" class="animable animator-active" style="transform-origin: 251.82px 253.589px;"><g id="freepik--open-envelope--inject-141" class="animable" style="transform-origin: 172.46px 187.69px;"><path d="M84.8,191,250.4,95.34,257,99.17a6.92,6.92,0,0,1,3.11,5.4V226.73a6.92,6.92,0,0,1-3.11,5.39l-159.37,92a6.91,6.91,0,0,1-6.23,0l-3.51-2a6.9,6.9,0,0,1-3.12-5.4Z" style="fill: rgb(236, 84, 36); transform-origin: 172.44px 210.101px;" id="el6miq8q4wg3t" class="animable"></path><g id="elnb1lgw3dx6"><path d="M84.8,191,250.4,95.34,257,99.17a6.92,6.92,0,0,1,3.11,5.4V226.73a6.92,6.92,0,0,1-3.11,5.39l-159.37,92a6.91,6.91,0,0,1-6.23,0l-3.51-2a6.9,6.9,0,0,1-3.12-5.4Z" style="opacity: 0.3; transform-origin: 172.44px 210.101px;" class="animable"></path></g><path d="M249.49,84.61l.68-.37-2.58-1.5h0a3.81,3.81,0,0,0-.68-.32L174,55.41a5,5,0,0,0-5.6,1.78L86.9,176.25a14.13,14.13,0,0,0-2.1,6.8V191l2.53,1.47L250.4,95.34v-7.9A5.3,5.3,0,0,0,249.49,84.61Z" style="fill: rgb(236, 84, 36); transform-origin: 167.6px 123.813px;" id="el29ztz4i4ugp" class="animable"></path><g id="el8z8kslugeb5"><path d="M171.81,57.77a4.22,4.22,0,0,0-.85.89L89.43,177.71a13,13,0,0,0-1.52,3.41l-2.53-1.47a16.67,16.67,0,0,1,.66-1.8s0,0,0,0l.35-.72a.6.6,0,0,0,.06-.11,6.86,6.86,0,0,1,.44-.72l81.52-119a3.31,3.31,0,0,1,.41-.5l.43-.4Z" style="opacity: 0.05; transform-origin: 128.595px 118.76px;" class="animable"></path></g><g id="elo5mduqyyeto"><path d="M250.14,84.23a4.1,4.1,0,0,0-.7-.34l-72.89-27a5,5,0,0,0-4.74.9l-2.54-1.47a5.08,5.08,0,0,1,4.76-.89l72.88,27a3.93,3.93,0,0,1,.68.34Z" style="fill: rgb(255, 255, 255); opacity: 0.35; transform-origin: 209.705px 69.7074px;" class="animable"></path></g><path d="M86.47,177c.14-.26.29-.5.43-.72C86.76,176.47,86.61,176.71,86.47,177Z" style="fill: rgb(236, 84, 36); transform-origin: 86.685px 176.64px;" id="eljz4akscp4eg" class="animable"></path><path d="M168.84,56.7a5.66,5.66,0,0,1,.44-.4A5.66,5.66,0,0,0,168.84,56.7Z" style="fill: rgb(236, 84, 36); transform-origin: 169.06px 56.5px;" id="el93ff399je6l" class="animable"></path><path d="M85.38,179.65a14.79,14.79,0,0,1,.66-1.8A14.79,14.79,0,0,0,85.38,179.65Z" style="fill: rgb(236, 84, 36); transform-origin: 85.71px 178.75px;" id="eljwm8jwlskd" class="animable"></path><path d="M86.06,177.8c.11-.25.23-.49.35-.72C86.29,177.31,86.17,177.55,86.06,177.8Z" style="fill: rgb(236, 84, 36); transform-origin: 86.235px 177.44px;" id="elz9qdyhfyslr" class="animable"></path><g id="el9ptexekj8nw"><path d="M86,177.85s0,0,0,0S86.05,177.83,86,177.85Z" style="opacity: 0.2; transform-origin: 86.0111px 177.846px;" class="animable"></path></g><g id="el5zk507oo8a"><polygon points="85.38 179.66 85.38 179.66 85.38 179.66 85.38 179.66" style="opacity: 0.2; transform-origin: 85.38px 179.66px;" class="animable"></polygon></g><g id="ele9az4clton8"><polygon points="169.28 56.3 169.28 56.3 169.28 56.3 169.28 56.3" style="opacity: 0.2; transform-origin: 169.28px 56.3px;" class="animable"></polygon></g><g id="el8p05m6z3rvf"><path d="M86.41,177.08l.06-.11Z" style="opacity: 0.2; transform-origin: 86.44px 177.025px;" class="animable"></path></g><g id="elqqo9qxvzmgh"><path d="M168.43,57.19a3.23,3.23,0,0,1,.41-.49A3.23,3.23,0,0,0,168.43,57.19Z" style="opacity: 0.2; transform-origin: 168.635px 56.945px;" class="animable"></path></g><path d="M171,58.66,89.43,177.72a14.09,14.09,0,0,0-2.1,6.79v7.91L252.93,96.8V88.9a5.73,5.73,0,0,0-3.49-5l-72.88-27A5,5,0,0,0,171,58.66Z" style="fill: rgb(236, 84, 36); transform-origin: 170.13px 124.536px;" id="elnqf1ylkyu1e" class="animable"></path><g id="elgyteqg1sttb"><path d="M171,58.66,89.43,177.72a14.09,14.09,0,0,0-2.1,6.79v7.91L252.93,96.8V88.9a5.73,5.73,0,0,0-3.49-5l-72.88-27A5,5,0,0,0,171,58.66Z" style="opacity: 0.15; transform-origin: 170.13px 124.536px;" class="animable"></path></g><g id="ely7trmggnfbs"><path d="M252.93,88.9a5.28,5.28,0,0,0-.89-2.78l-164.13,95v0a12.51,12.51,0,0,0-.57,3.37v7.91L252.93,96.8Z" style="opacity: 0.1; transform-origin: 170.135px 139.26px;" class="animable"></path></g><path d="M245.86,55.35a1.91,1.91,0,0,0-.78-1.74L240,50.69a1.89,1.89,0,0,0-1.9.19L102.29,129.3A6,6,0,0,0,99.6,134V296.63a1.88,1.88,0,0,0,.79,1.74l5,2.91a1.89,1.89,0,0,0,1.9-.19l135.83-78.42a5.94,5.94,0,0,0,2.69-4.65Z" style="fill: rgb(240, 240, 240); transform-origin: 172.73px 175.985px;" id="elnngcf7j4axc" class="animable"></path><path d="M107.34,301.09l135.83-78.42a5.94,5.94,0,0,0,2.69-4.65V55.35c0-1.72-1.21-2.41-2.69-1.56L107.34,132.21a6,6,0,0,0-2.69,4.66V299.54C104.65,301.26,105.85,302,107.34,301.09Z" style="fill: rgb(250, 250, 250); transform-origin: 175.255px 177.454px;" id="elv6lbtwifqpg" class="animable"></path><path d="M104.64,299.54a2,2,0,0,0,.64,1.64c-.91-.51-4.44-2.56-4.88-2.81a1.86,1.86,0,0,1-.8-1.73V134a5.35,5.35,0,0,1,.8-2.64l5,2.9a5.45,5.45,0,0,0-.8,2.66Z" style="fill: rgb(224, 224, 224); transform-origin: 102.495px 216.27px;" id="elem6icireud6" class="animable"></path><path d="M230.49,78.67,206.35,92.6a4.65,4.65,0,0,0-2.16,3.59c0,1.3,1,1.79,2.17,1.1l24.13-13.93a4.65,4.65,0,0,0,2.16-3.6C232.65,78.47,231.68,78,230.49,78.67Z" style="fill: rgb(224, 224, 224); transform-origin: 218.42px 87.9843px;" id="elwzlm0ftu7z" class="animable"></path><path d="M121.08,151.21l44.42-25.64c1.19-.69,2.16-.2,2.16,1.1a4.65,4.65,0,0,1-2.16,3.59L121.08,155.9c-1.19.69-2.16.2-2.16-1.09A4.63,4.63,0,0,1,121.08,151.21Z" style="fill: rgb(224, 224, 224); transform-origin: 143.29px 140.735px;" id="el7oi0pratgy8" class="animable"></path><path d="M121.08,165.28l109.41-63.16c1.19-.69,2.16-.2,2.16,1.09a4.65,4.65,0,0,1-2.16,3.6L121.08,170c-1.19.7-2.16.2-2.16-1.09A4.67,4.67,0,0,1,121.08,165.28Z" style="fill: rgb(224, 224, 224); transform-origin: 175.785px 136.062px;" id="elzxkhh2s63b" class="animable"></path><path d="M121.08,174.67,230.49,111.5c1.19-.69,2.16-.2,2.16,1.09a4.65,4.65,0,0,1-2.16,3.6L121.08,179.36c-1.19.69-2.16.2-2.16-1.1A4.65,4.65,0,0,1,121.08,174.67Z" style="fill: rgb(224, 224, 224); transform-origin: 175.785px 145.43px;" id="el1k4bl0pcqo1" class="animable"></path><path d="M121.08,184.05l109.41-63.17c1.19-.69,2.16-.2,2.16,1.1a4.65,4.65,0,0,1-2.16,3.59L121.08,188.74c-1.19.69-2.16.2-2.16-1.1A4.65,4.65,0,0,1,121.08,184.05Z" style="fill: rgb(224, 224, 224); transform-origin: 175.785px 154.81px;" id="el7bmxbdb1alc" class="animable"></path><path d="M121.08,199.46,230.49,136.3c1.19-.69,2.16-.2,2.16,1.09a4.65,4.65,0,0,1-2.16,3.6L121.08,204.15c-1.19.69-2.16.2-2.16-1.09A4.65,4.65,0,0,1,121.08,199.46Z" style="fill: rgb(224, 224, 224); transform-origin: 175.785px 170.225px;" id="elduw64bke50i" class="animable"></path><path d="M121.08,208.84l109.41-63.16c1.19-.69,2.16-.2,2.16,1.09a4.65,4.65,0,0,1-2.16,3.6L121.08,213.53c-1.19.69-2.16.2-2.16-1.09A4.65,4.65,0,0,1,121.08,208.84Z" style="fill: rgb(224, 224, 224); transform-origin: 175.785px 179.605px;" id="elcwfohlmkr96" class="animable"></path><path d="M121.08,218.23l109.41-63.17c1.19-.69,2.16-.2,2.16,1.09a4.65,4.65,0,0,1-2.16,3.6L121.08,222.92c-1.19.69-2.16.2-2.16-1.1A4.63,4.63,0,0,1,121.08,218.23Z" style="fill: rgb(224, 224, 224); transform-origin: 175.785px 188.99px;" id="elvsp07c64ss" class="animable"></path><path d="M255.94,228.35a1.38,1.38,0,0,1-.17.25l-69-21.88a11.88,11.88,0,0,0-14.91,4.59L98.07,321l-2.73,1.58h0a2.24,2.24,0,0,1-2.11.24l75.87-113a11.92,11.92,0,0,1,14.93-4.6Z" style="fill: rgb(236, 84, 36); transform-origin: 174.585px 263.592px;" id="elpib94t4dc6" class="animable"></path><g id="elngs4892sdam"><path d="M165.05,222.07l.18-.14L98.07,321l-2.73,1.57,0,0a2.29,2.29,0,0,1-2.11.23l69.2-102.31Z" style="fill: rgb(255, 255, 255); opacity: 0.4; transform-origin: 129.23px 271.724px;" class="animable"></path></g><g id="elcqyu55lqtnu"><path d="M256,228.36a1.71,1.71,0,0,1-.18.25l-69-21.89a11.89,11.89,0,0,0-14.92,4.59l-2.73-1.59a11.92,11.92,0,0,1,14.9-4.57Z" style="fill: rgb(255, 255, 255); opacity: 0.4; transform-origin: 212.585px 216.374px;" class="animable"></path></g><path d="M260.09,103.79h0c-.15-.9-.62-1.15-1.23-.72a3.81,3.81,0,0,0-.79.81l-.35.49L189.6,207.9l-10.17,14.17a5.82,5.82,0,0,1-5.6,2.1l-8.77-2.09-67-24.67a3.55,3.55,0,0,0-1.37,0,2.91,2.91,0,0,0-.5.16l2.52-1.46,64.24,23.55,8.46,3a5.78,5.78,0,0,0,5.6-2.1l10.17-14.16,68.43-104a2.83,2.83,0,0,1,.77-.71l-5.92-3.41,2.48-1.43,4.1,2.36A7.09,7.09,0,0,1,260.09,103.79Z" style="fill: rgb(236, 84, 36); transform-origin: 178.14px 160.557px;" id="elyw4pxc1qgc" class="animable"></path><g id="elxabivntp5l"><path d="M189.6,207.9l-10.17,14.16a5.78,5.78,0,0,1-5.6,2.1l-8.78-2.09.18-.14.42-.68,5.75,1.37a5.77,5.77,0,0,0,5.6-2.1l10.07-14Z" style="fill: rgb(255, 255, 255); opacity: 0.4; transform-origin: 177.325px 215.389px;" class="animable"></path></g><g id="elp2nmd9lbycs"><path d="M257,99.16l-4.1-2.36-2.48,1.43,5.92,3.41v0h0a2.89,2.89,0,0,0-.77.71l-68.44,104-.09.13v0l2.53,1.38,68.1-103.54.35-.48a3.28,3.28,0,0,1,.79-.82c.61-.42,1.08-.17,1.23.72h0A7.1,7.1,0,0,0,257,99.16Z" style="opacity: 0.05; transform-origin: 223.54px 152.33px;" class="animable"></path></g><path d="M99.41,199.39,84.8,191V316.71a6.9,6.9,0,0,0,3.12,5.4l3.51,2a6.91,6.91,0,0,0,6.23,0l1.75-1Z" style="fill: rgb(236, 84, 36); transform-origin: 92.105px 257.926px;" id="ell93rbyzkgk" class="animable"></path><g id="elg3yd05ybh5u"><path d="M99.41,199.39,84.8,191V316.71a6.9,6.9,0,0,0,3.12,5.4l3.51,2a6.91,6.91,0,0,0,6.23,0l1.75-1Z" style="opacity: 0.3; transform-origin: 92.105px 257.926px;" class="animable"></path></g><path d="M260.15,104.57V226.72a6.33,6.33,0,0,1-1,3.16,6.87,6.87,0,0,1-1.83,2.05l-.12.06a1.43,1.43,0,0,1-.2.14l-159.36,92h0a2.24,2.24,0,0,1-2.12.25,1.88,1.88,0,0,1-.93-1.49,3.36,3.36,0,0,1,0-.56V200.17a2.71,2.71,0,0,1,3.5-2.76l67,24.67,8.77,2.09a5.82,5.82,0,0,0,5.6-2.1L189.6,207.9l68.1-103.53.35-.49C259.2,102.28,260.15,102.58,260.15,104.57Z" style="fill: rgb(236, 84, 36); transform-origin: 177.364px 213.696px;" id="elcxfivryu74h" class="animable"></path><g id="el19q8v9ydqy9j"><path d="M260.15,104.57V226.72a6.33,6.33,0,0,1-1,3.16,6.87,6.87,0,0,1-1.83,2.05l-.12.06a1.43,1.43,0,0,1-.2.14l-159.36,92h0a2.24,2.24,0,0,1-2.12.25,1.88,1.88,0,0,1-.93-1.49,3.36,3.36,0,0,1,0-.56V200.17a2.71,2.71,0,0,1,3.5-2.76l63.58,23.41,3,1.11.41.15,8.77,2.09a5.82,5.82,0,0,0,5.6-2.1L189.6,207.9l68.1-103.53.35-.49C259.2,102.28,260.15,102.58,260.15,104.57Z" style="opacity: 0.2; transform-origin: 177.364px 213.696px;" class="animable"></path></g><path d="M164.65,221.93,95.51,324.38a2.17,2.17,0,0,1-1-2.05v-2l68-100.84S164.65,221.93,164.65,221.93Z" style="fill: rgb(236, 84, 36); transform-origin: 129.575px 271.935px;" id="eluapn89k7mzl" class="animable"></path><g id="el4we68j9eysh"><path d="M171.85,211.31,95.51,324.38a2.17,2.17,0,0,1-1-2.05v-2l74.53-110.54Z" style="opacity: 0.25; transform-origin: 133.175px 267.085px;" class="animable"></path></g><path d="M257,232.13l.2-.14.12-.07a6.58,6.58,0,0,0,1.83-2,6.3,6.3,0,0,0,1-3.1L189.61,207.9l47.23,35.88Z" style="fill: rgb(236, 84, 36); transform-origin: 224.88px 225.84px;" id="el72s86j1olhe" class="animable"></path><g id="eld6l46dd8qvr"><path d="M257,232.13l.2-.14.12-.07a6.58,6.58,0,0,0,1.83-2,6.3,6.3,0,0,0,1-3.1L189.61,207.9l47.23,35.88Z" style="opacity: 0.25; transform-origin: 224.88px 225.84px;" class="animable"></path></g><path d="M259.18,229.88a6.58,6.58,0,0,1-1.83,2l-.12.07L97.66,324.13h0a2.2,2.2,0,0,1-2.12.24l76.31-113.1a12,12,0,0,1,15-4.61Z" style="fill: rgb(236, 84, 36); transform-origin: 177.36px 265.091px;" id="elkdblimaxs7o" class="animable"></path><g id="elcj7pv9w2a4"><path d="M259.18,229.88a6.58,6.58,0,0,1-1.83,2l-.12.07L97.66,324.13h0a2.2,2.2,0,0,1-2.12.24l76.31-113.1a12,12,0,0,1,15-4.61Z" style="opacity: 0.15; transform-origin: 177.36px 265.091px;" class="animable"></path></g><g id="elz553j46tiup"><path d="M85.38,179.65l2.53,1.47a12.37,12.37,0,0,0-.58,3.4v7.89L84.8,191V183A12.36,12.36,0,0,1,85.38,179.65Z" style="opacity: 0.15; transform-origin: 86.355px 186.03px;" class="animable"></path></g><polygon points="98.7 196.06 96.17 197.52 93.62 196.05 87.32 192.42 89.77 190.97 98.7 196.06" style="fill: rgb(236, 84, 36); transform-origin: 93.01px 194.245px;" id="el5290wkk5u5a" class="animable"></polygon><g id="elsqbewk3zra"><path d="M98.81,196.11l-9-5.14-2.45,1.45,6.3,3.63,2.56,1.47h0a2.06,2.06,0,0,1,.48-.15,3.21,3.21,0,0,1,1.37,0l5.09,1.87,58.49,21.54.91-1.36Z" style="opacity: 0.05; transform-origin: 124.96px 205.875px;" class="animable"></path></g></g><g id="freepik--back-envelope--inject-141" class="animable" style="transform-origin: 216.825px 234.366px;"><g id="freepik--Envelope--inject-141" class="animable" style="transform-origin: 216.825px 234.366px;"><g id="freepik--Letter--inject-141" class="animable" style="transform-origin: 216.825px 234.366px;"><path d="M129.17,216a7.09,7.09,0,0,1,3.22-5.57l158.82-91.69a7.1,7.1,0,0,1,6.44,0l3.63,2.09a7.14,7.14,0,0,1,3.22,5.58V252.68a7.14,7.14,0,0,1-3.22,5.57L142.45,349.94a7.14,7.14,0,0,1-6.43,0l-3.63-2.09a7.16,7.16,0,0,1-3.22-5.58Z" style="fill: rgb(236, 84, 36); transform-origin: 216.835px 234.336px;" id="elk1ya6fcmis" class="animable"></path><path d="M130.09,212.88l9.14,5.27,164.3-94.87a6.57,6.57,0,0,0-2.27-2.4l-3.64-2.09a7,7,0,0,0-6.42,0L132.37,210.47A6.63,6.63,0,0,0,130.09,212.88Z" style="fill: rgb(236, 84, 36); transform-origin: 216.81px 168.08px;" id="elmfrlpi98m2n" class="animable"></path><g id="ela02sei1n6li"><path d="M130.09,212.88l9.14,5.27,164.3-94.87a6.57,6.57,0,0,0-2.27-2.4l-3.64-2.09a7,7,0,0,0-6.42,0L132.37,210.47A6.63,6.63,0,0,0,130.09,212.88Z" style="fill: rgb(255, 255, 255); opacity: 0.35; transform-origin: 216.81px 168.08px;" class="animable"></path></g><g id="el4ej7hm2fw0n"><path d="M129.15,216.05V342.28a7.1,7.1,0,0,0,3.22,5.58L136,350a5.46,5.46,0,0,0,.88.4,7.62,7.62,0,0,0,1.33.3,7.73,7.73,0,0,0,2.54-.09,5.8,5.8,0,0,0,.63-.16l.39-.13a2,2,0,0,1-1.55-.06,2.23,2.23,0,0,1-1-2.12v-130l-9.14-5.27A6.59,6.59,0,0,0,129.15,216.05Z" style="opacity: 0.1; transform-origin: 135.46px 281.817px;" class="animable"></path></g></g></g><path d="M156.77,229.11l46.15-26.65c.72-.41,1.3-.08,1.3.75v.37a2.87,2.87,0,0,1-1.3,2.25l-46.15,26.64c-.71.41-1.29.08-1.29-.75v-.36A2.87,2.87,0,0,1,156.77,229.11Z" style="fill: rgb(69, 90, 100); transform-origin: 179.85px 217.465px;" id="elv9g607gk2l" class="animable"></path><path d="M156.77,236.81l46.15-26.65c.72-.41,1.3-.08,1.3.75v.37a2.89,2.89,0,0,1-1.3,2.25l-46.15,26.64c-.71.41-1.29.08-1.29-.75v-.36A2.87,2.87,0,0,1,156.77,236.81Z" style="fill: rgb(69, 90, 100); transform-origin: 179.85px 225.165px;" id="eld3dcc5oqas" class="animable"></path><path d="M156.77,244.5l46.15-26.64c.72-.41,1.3-.08,1.3.75V219a2.89,2.89,0,0,1-1.3,2.25l-46.15,26.64c-.71.41-1.29.08-1.29-.75v-.37A2.9,2.9,0,0,1,156.77,244.5Z" style="fill: rgb(69, 90, 100); transform-origin: 179.85px 232.875px;" id="el0stk8fe4beio" class="animable"></path><path d="M240.6,242.13l46.14-26.64c.72-.41,1.3-.08,1.3.75v.36a2.87,2.87,0,0,1-1.29,2.25L240.6,245.5c-.72.41-1.3.08-1.3-.75v-.37A2.89,2.89,0,0,1,240.6,242.13Z" style="fill: rgb(69, 90, 100); transform-origin: 263.67px 230.495px;" id="el82av7vuxsb3" class="animable"></path><path d="M240.6,249.83l46.14-26.64c.72-.41,1.3-.08,1.3.75v.36a2.87,2.87,0,0,1-1.29,2.25L240.6,253.2c-.72.41-1.3.07-1.3-.75v-.37A2.87,2.87,0,0,1,240.6,249.83Z" style="fill: rgb(69, 90, 100); transform-origin: 263.67px 238.194px;" id="elvcsajzebjug" class="animable"></path><path d="M240.6,257.53l46.14-26.64c.72-.42,1.3-.08,1.3.75V232a2.87,2.87,0,0,1-1.29,2.25L240.6,260.9c-.72.41-1.3.07-1.3-.75v-.37A2.87,2.87,0,0,1,240.6,257.53Z" style="fill: rgb(69, 90, 100); transform-origin: 263.67px 245.892px;" id="elbcacqy6mflq" class="animable"></path><path d="M240.6,265.23l46.14-26.64c.72-.42,1.3-.08,1.3.75v.36a2.87,2.87,0,0,1-1.29,2.25L240.6,268.59c-.72.42-1.3.08-1.3-.75v-.36A2.87,2.87,0,0,1,240.6,265.23Z" style="fill: rgb(69, 90, 100); transform-origin: 263.67px 253.59px;" id="elfdmcmce8oo" class="animable"></path><g id="elbxhyoy69ws5"><path d="M267.84,164.54l.37.45c.47.57,1.32.08,1.79-1l.36-.86c.47-1.12,1.32-1.61,1.79-1l.37.45c.47.57,1.32.08,1.79-1l.36-.87c.47-1.12,1.32-1.61,1.79-1l.37.44c.47.57,1.31.08,1.79-1l.36-.87c.47-1.11,1.32-1.6,1.79-1l.37.44c.47.57,1.31.08,1.78-1l.37-.87c.47-1.11,1.32-1.6,1.79-1l.59.72c.38.46,1,.23,1.53-.54l.24-.38c1-1.5,2.15-.69,1.74,1.19h0c-.2.87,0,1.65.39,1.89l.53.31c.63.37.63,1.82,0,2.91h0c-.62,1.08-.62,2.54,0,2.9h0c.63.36.63,1.81,0,2.9h0c-.62,1.09-.62,2.54,0,2.9h0c.63.37.63,1.82,0,2.91h0c-.62,1.09-.62,2.54,0,2.9h0c.63.36.63,1.81,0,2.9h0c-.62,1.09-.62,2.54,0,2.91h0c.63.36.63,1.81,0,2.9l-.53.93a3.2,3.2,0,0,0-.39,2.34h0c.41,1.4-.78,3.59-1.74,3.19l-.24-.1c-.49-.2-1.15.32-1.53,1.23l-.59,1.4c-.47,1.12-1.32,1.61-1.79,1l-.37-.45c-.47-.57-1.31-.08-1.78,1l-.37.86c-.47,1.12-1.32,1.61-1.79,1l-.36-.45c-.48-.57-1.32-.08-1.79,1l-.37.87c-.47,1.12-1.32,1.61-1.79,1l-.36-.44c-.47-.57-1.32-.08-1.79,1l-.37.87c-.47,1.11-1.32,1.6-1.79,1L270,201c-.47-.57-1.32-.09-1.79,1l-.37.87c-.47,1.11-1.32,1.6-1.79,1l-.59-.72c-.38-.47-1-.24-1.53.54l-.24.38c-1,1.5-2.15.69-1.74-1.19v0c.19-.87,0-1.64-.39-1.88l-.54-.31c-.63-.37-.63-1.82,0-2.91h0c.63-1.09.63-2.54,0-2.9h0c-.63-.36-.63-1.81,0-2.9h0c.63-1.09.63-2.54,0-2.91h0c-.63-.36-.63-1.81,0-2.9h0c.63-1.09.63-2.54,0-2.9h0c-.63-.36-.63-1.82,0-2.9h0c.63-1.09.63-2.54,0-2.91h0c-.63-.36-.63-1.81,0-2.9l.54-.93a3.3,3.3,0,0,0,.39-2.34h0c-.41-1.4.78-3.59,1.74-3.19l.24.1c.49.2,1.15-.32,1.53-1.23l.59-1.41C266.52,164.46,267.37,164,267.84,164.54Z" style="opacity: 0.1; transform-origin: 275.56px 179.36px;" class="animable"></path></g><path d="M269,164.2l.36.44c.47.57,1.32.08,1.79-1l.37-.87c.47-1.12,1.32-1.6,1.79-1l.36.44c.47.57,1.32.08,1.79-1l.37-.87c.47-1.11,1.31-1.6,1.78-1l.37.44c.47.58,1.32.09,1.79-1l.37-.87c.47-1.11,1.31-1.6,1.78-1l.37.45c.47.57,1.32.08,1.79-1l.36-.86c.47-1.12,1.32-1.61,1.79-1l.6.72c.38.47,1,.24,1.53-.54l.24-.37c1-1.51,2.15-.7,1.73,1.18v0c-.19.87,0,1.64.39,1.88l.54.32c.63.36.63,1.81,0,2.9h0c-.63,1.09-.63,2.54,0,2.9h0c.63.37.63,1.82,0,2.91h0c-.63,1.08-.63,2.53,0,2.9h0c.63.36.63,1.81,0,2.9h0c-.63,1.09-.63,2.54,0,2.9h0c.63.37.63,1.82,0,2.91h0c-.63,1.09-.63,2.54,0,2.9h0c.63.36.63,1.81,0,2.9l-.54.94a3.27,3.27,0,0,0-.39,2.33h0c.42,1.4-.77,3.59-1.73,3.2l-.24-.1c-.5-.21-1.15.32-1.53,1.23l-.6,1.4c-.47,1.11-1.32,1.6-1.79,1l-.36-.44c-.47-.58-1.32-.09-1.79,1l-.37.87c-.47,1.11-1.31,1.6-1.78,1l-.37-.45c-.47-.57-1.32-.08-1.79,1l-.37.86c-.47,1.12-1.31,1.61-1.78,1l-.37-.45c-.47-.57-1.32-.08-1.79,1l-.36.86c-.47,1.12-1.32,1.61-1.79,1l-.37-.45c-.47-.57-1.32-.08-1.79,1l-.36.87c-.47,1.12-1.32,1.61-1.79,1l-.59-.72c-.39-.46-1-.23-1.54.54l-.24.38c-1,1.51-2.15.69-1.73-1.19h0c.19-.87,0-1.64-.39-1.89l-.54-.31c-.63-.36-.63-1.81,0-2.9h0c.63-1.09.63-2.54,0-2.91h0c-.63-.36-.63-1.81,0-2.9h0c.63-1.09.63-2.54,0-2.9h0c-.63-.37-.63-1.82,0-2.9h0c.63-1.09.63-2.54,0-2.91h0c-.63-.36-.63-1.81,0-2.9h0c.63-1.09.63-2.54,0-2.9h0c-.63-.37-.63-1.82,0-2.91l.54-.93a3.29,3.29,0,0,0,.39-2.34h0c-.42-1.4.77-3.58,1.73-3.19l.24.1c.5.2,1.15-.32,1.54-1.23l.59-1.4C267.67,164.11,268.52,163.62,269,164.2Z" style="fill: rgb(240, 240, 240); transform-origin: 276.72px 178.994px;" id="eliqhn2gyvbdf" class="animable"></path><path d="M267.93,168.06l17.56-10.14c1.68-1,3-.19,3,1.75V184.5a6.7,6.7,0,0,1-3,5.25l-17.56,10.14c-1.68,1-3,.18-3-1.75V173.31A6.68,6.68,0,0,1,267.93,168.06Z" style="fill: rgb(69, 90, 100); transform-origin: 276.71px 178.904px;" id="elc3cpvdeu7tq" class="animable"></path><path d="M282.54,179.07a.08.08,0,0,1-.12,0l-1.09-1.93-2-7.53a.75.75,0,0,1,.07-.45l1.12-2v-.26l-.46.26c-.08,0-.15,0-.15-.14a.41.41,0,0,1,.15-.32l.52-.3c.13-.08.24,0,.24.23v.4a.82.82,0,0,1-.09.34l-1.1,2,2,7.45,1.07,1.87a.39.39,0,0,1-.05.34A.24.24,0,0,1,282.54,179.07Z" style="fill: rgb(236, 84, 36); transform-origin: 281.02px 172.733px;" id="el2dc2oqppts9" class="animable"></path><path d="M282.54,184.4c-2,1.15-3.59-.42-3.59-3.49s1.61-6.49,3.59-7.64,3.59.43,3.59,3.5S284.52,183.26,282.54,184.4Zm0-10.51c-1.76,1-3.19,4.06-3.19,6.79s1.43,4.12,3.19,3.11,3.19-4.07,3.19-6.8S284.3,172.87,282.54,173.89Z" style="fill: rgb(240, 240, 240); transform-origin: 282.54px 178.836px;" id="elteyg0tnt5gd" class="animable"></path><path d="M286.42,176.75c-.05,0-.1,0-.1-.1,0-3.23-1.69-4.88-3.78-3.67s-3.78,4.81-3.78,8a.26.26,0,0,1-.1.21c-.06,0-.1,0-.1-.09,0-3.41,1.79-7.2,4-8.47s4,.47,4,3.87A.24.24,0,0,1,286.42,176.75Z" style="fill: rgb(236, 84, 36); transform-origin: 282.561px 176.702px;" id="eltjbji1zy30a" class="animable"></path><g id="elk2jy36n2rl"><path d="M286.42,176.75c-.05,0-.1,0-.1-.1,0-3.23-1.69-4.88-3.78-3.67s-3.78,4.81-3.78,8a.26.26,0,0,1-.1.21c-.06,0-.1,0-.1-.09,0-3.41,1.79-7.2,4-8.47s4,.47,4,3.87A.24.24,0,0,1,286.42,176.75Z" style="opacity: 0.2; transform-origin: 282.561px 176.702px;" class="animable"></path></g><path d="M274.76,183.48c-.05,0-.1,0-.1-.09,0-3.23-1.69-4.88-3.78-3.68s-3.78,4.81-3.78,8a.3.3,0,0,1-.1.22c-.06,0-.1,0-.1-.1,0-3.4,1.78-7.2,4-8.47s4,.47,4,3.87A.24.24,0,0,1,274.76,183.48Z" style="fill: rgb(236, 84, 36); transform-origin: 270.901px 183.437px;" id="elefht072zd2c" class="animable"></path><g id="elqtg7ak9w5a"><path d="M274.76,183.48c-.05,0-.1,0-.1-.09,0-3.23-1.69-4.88-3.78-3.68s-3.78,4.81-3.78,8a.3.3,0,0,1-.1.22c-.06,0-.1,0-.1-.1,0-3.4,1.78-7.2,4-8.47s4,.47,4,3.87A.24.24,0,0,1,274.76,183.48Z" style="opacity: 0.2; transform-origin: 270.901px 183.437px;" class="animable"></path></g><path d="M270.88,191.14c-2,1.14-3.59-.43-3.59-3.5s1.61-6.49,3.59-7.64,3.59.43,3.59,3.5S272.86,190,270.88,191.14Zm0-10.52c-1.76,1-3.19,4.07-3.19,6.79s1.43,4.13,3.19,3.11,3.19-4.06,3.19-6.79S272.64,179.61,270.88,180.62Z" style="fill: rgb(240, 240, 240); transform-origin: 270.88px 185.568px;" id="el2jctw9fgone" class="animable"></path><path d="M275.77,184.11h0l-4.88,1.69c-.06,0-.1,0-.12-.08a.38.38,0,0,1,0-.25l3.3-7.62c.06-.13.15-.19.21-.14a.29.29,0,0,1,0,.32l-3.11,7.19,4.53-1.57L280.33,173c.05-.13.15-.19.21-.14a.29.29,0,0,1,0,.32L275.88,184A.37.37,0,0,1,275.77,184.11Z" style="fill: rgb(236, 84, 36); transform-origin: 275.668px 179.321px;" id="el7h710dbtmdw" class="animable"></path><path d="M275.77,184.11c-.07,0-.12,0-.14-.08l-2.38-8.91a.42.42,0,0,1,.09-.35c.07-.09.16-.07.19,0l2.38,8.91a.49.49,0,0,1-.09.35Z" style="fill: rgb(236, 84, 36); transform-origin: 274.578px 179.41px;" id="el6j9zx3l9mqj" class="animable"></path><path d="M275.42,182.8h0l-4,1.83c-.08,0-.14,0-.14-.17a.44.44,0,0,1,.16-.31l4-1.82c.08,0,.14,0,.14.17A.45.45,0,0,1,275.42,182.8Z" style="fill: rgb(236, 84, 36); transform-origin: 273.43px 183.48px;" id="elyikwp9dkpuk" class="animable"></path><path d="M273.84,173.81c-.3.1-.28-.05-.83.31a1.57,1.57,0,0,0-.74,1.36c0,.14.07.21.16.14a1.35,1.35,0,0,1,.48-.26.69.69,0,0,0,.54-.15c.18-.16.42-.59.74-.88a3.7,3.7,0,0,1,.75-.45l.19-.12a.42.42,0,0,0,.13-.37c-.05-.18-.15-.37-.35-.29S274.17,173.71,273.84,173.81Z" style="fill: rgb(236, 84, 36); transform-origin: 273.767px 174.364px;" id="el5cz8vpeojmg" class="animable"></path><g id="eloh0adlmk05b"><path d="M273.84,173.81c-.3.1-.28-.05-.83.31a1.57,1.57,0,0,0-.74,1.36c0,.14.07.21.16.14a1.35,1.35,0,0,1,.48-.26.69.69,0,0,0,.54-.15c.18-.16.42-.59.74-.88a3.7,3.7,0,0,1,.75-.45l.19-.12a.42.42,0,0,0,.13-.37c-.05-.18-.15-.37-.35-.29S274.17,173.71,273.84,173.81Z" style="opacity: 0.2; transform-origin: 273.767px 174.364px;" class="animable"></path></g><path d="M275.21,182c-.06,0-.11,0-.14-.07a.42.42,0,0,1,.09-.35,19.44,19.44,0,0,0,4.48-10.93.32.32,0,0,1,.17-.28c.08,0,.14.06.13.19A20.4,20.4,0,0,1,275.27,182Z" style="fill: rgb(236, 84, 36); transform-origin: 277.502px 176.185px;" id="elukrzkf697bn" class="animable"></path><path d="M278.43,178s-.07,0-.1,0l-.42-.3c-.07,0-.08-.18,0-.31s.14-.2.2-.15l.43.29c.06,0,.07.18,0,.31A.34.34,0,0,1,278.43,178Z" style="fill: rgb(236, 84, 36); transform-origin: 278.221px 177.612px;" id="elioyhgzqhnhs" class="animable"></path><path d="M275.77,185.3c-.51.3-.93-.11-.93-.89a2.47,2.47,0,0,1,.93-2c.5-.29.92.11.92.9A2.46,2.46,0,0,1,275.77,185.3Zm0-2.53a1.89,1.89,0,0,0-.72,1.52c0,.6.32.92.72.69a1.91,1.91,0,0,0,.71-1.52C276.48,182.85,276.16,182.54,275.77,182.77Z" style="fill: rgb(240, 240, 240); transform-origin: 275.765px 183.857px;" id="elk37ehtupoua" class="animable"></path><path d="M277.38,185.08a.06.06,0,0,1-.07,0L275.7,184s-.05-.13,0-.22.11-.14.15-.11l1.61,1c.05,0,.06.12,0,.21A.17.17,0,0,1,277.38,185.08Z" style="fill: rgb(240, 240, 240); transform-origin: 276.59px 184.376px;" id="elx3cw0n9gdjs" class="animable"></path><path d="M277.71,184.89l-.79.46c-.05,0-.1,0-.1-.11a.29.29,0,0,1,.1-.22l.79-.45c.06,0,.1,0,.1.1A.26.26,0,0,1,277.71,184.89Z" style="fill: rgb(236, 84, 36); transform-origin: 277.315px 184.96px;" id="el4wnx3a6y6qq" class="animable"></path><g id="el30ba3hztsww"><path d="M277.71,184.89l-.79.46c-.05,0-.1,0-.1-.11a.29.29,0,0,1,.1-.22l.79-.45c.06,0,.1,0,.1.1A.26.26,0,0,1,277.71,184.89Z" style="opacity: 0.2; transform-origin: 277.315px 184.96px;" class="animable"></path></g><path d="M279.27,167.3a1.15,1.15,0,0,1,.39-.92c.22-.13.39.08.39.47a1.12,1.12,0,0,1-.39.92C279.45,167.9,279.27,167.68,279.27,167.3Z" style="fill: rgb(236, 84, 36); transform-origin: 279.66px 167.075px;" id="elrg4ukq4j5dd" class="animable"></path><g id="el3gypmihul72"><path d="M279.27,167.3a1.15,1.15,0,0,1,.39-.92c.22-.13.39.08.39.47a1.12,1.12,0,0,1-.39.92C279.45,167.9,279.27,167.68,279.27,167.3Z" style="opacity: 0.4; transform-origin: 279.66px 167.075px;" class="animable"></path></g><path d="M279.66,167.4l-1.3.75c-.17.1-.17-.55,0-.65l1.3-.75C279.8,166.67,279.8,167.32,279.66,167.4Z" style="fill: rgb(236, 84, 36); transform-origin: 278.999px 167.452px;" id="elejxfzmgh7ds" class="animable"></path><g id="elq0and5zq1ph"><path d="M279.66,167.4l-1.3.75c-.17.1-.17-.55,0-.65l1.3-.75C279.8,166.67,279.8,167.32,279.66,167.4Z" style="opacity: 0.2; transform-origin: 278.999px 167.452px;" class="animable"></path></g><path d="M282.29,179a.66.66,0,0,1,.25-.53c.14-.08.25,0,.25.25a.64.64,0,0,1-.25.52C282.4,179.3,282.29,179.19,282.29,179Z" style="fill: rgb(240, 240, 240); transform-origin: 282.54px 178.848px;" id="eli6e37slfbr9" class="animable"></path><path d="M270.63,185.71a.64.64,0,0,1,.25-.52c.14-.08.25,0,.25.24a.66.66,0,0,1-.25.53C270.74,186,270.63,185.93,270.63,185.71Z" style="fill: rgb(240, 240, 240); transform-origin: 270.88px 185.565px;" id="el03lwbh9253cw" class="animable"></path></g><g id="freepik--envelope--inject-141" class="animable" style="transform-origin: 281.026px 372.255px;"><path d="M418.84,351.75a.41.41,0,0,0,0-.16s0,0,0,0a.68.68,0,0,0,0-.14.43.43,0,0,0-.05-.21.77.77,0,0,0-.1-.23,2.1,2.1,0,0,0-.78-.86.07.07,0,0,0,0,0l-.12-.07-.14-.09-.05,0-104.7-60.45-.2-.11a11.63,11.63,0,0,0-6.09-1.44h-.09a11.43,11.43,0,0,0-5.15,1.52s0,0,0,0l-7.61,4.38L161.63,370l-16.83,9.71,0,0a4,4,0,0,0-1.57,3v9.31a4.09,4.09,0,0,0,2.05,3.58h0l1.66,1,102.62,59.26a7,7,0,0,0,6.29,0h0l141.2-81.52,20.48-11.82.2-.14.12-.07a2.12,2.12,0,0,0,1-1.57C418.84,360.64,418.8,352.31,418.84,351.75Z" style="fill: rgb(236, 84, 36); transform-origin: 281.04px 372.293px;" id="elc43ntwtg25k" class="animable"></path><g id="elubysnql7mw"><path d="M250.79,456.42l.23.07a7,7,0,0,0,.82.13h0c.2,0,.41,0,.61,0h.25v-9.05a6.3,6.3,0,0,1-3.17-.76L145.26,386.65a4.07,4.07,0,0,1-2.07-3.81v9.28a4.09,4.09,0,0,0,2.05,3.58h0l1.66,1,102.62,59.26a5.13,5.13,0,0,0,.71.33A5,5,0,0,0,250.79,456.42Z" style="opacity: 0.25; transform-origin: 197.941px 419.73px;" class="animable"></path></g><g id="elm68xn6qnoa"><path d="M418.84,360.8a2.12,2.12,0,0,1-1,1.57l-.12.07-.2.14L397.05,374.4l-141.2,81.52h0a6.42,6.42,0,0,1-3,.74h-.1v-9.05a6.84,6.84,0,0,0,3.12-.74l0,0,161.88-93.47.12-.07a2.12,2.12,0,0,0,1-1.57C418.8,352.31,418.84,360.64,418.84,360.8Z" style="opacity: 0.15; transform-origin: 335.81px 404.21px;" class="animable"></path></g><g id="el4q67122a0cb"><path d="M418.84,351.75a2.12,2.12,0,0,1-1,1.57l-.12.07L397,365.34l-85.52,49.39-55.67,32.13,0,0a7,7,0,0,1-6.29,0l-1.79-1-79.9-46.14-20.93-12.08-1.66-.95a0,0,0,0,1,0,0,4.08,4.08,0,0,1-2.05-3.72v-.12a4,4,0,0,1,1.57-3l0,0L161.63,370l132-76.24,7.61-4.38s0,0,0,0a11.43,11.43,0,0,1,5.15-1.52h.09a11.63,11.63,0,0,1,6.09,1.44l.2.11,104.7,60.45.05,0,.14.09.12.07a.07.07,0,0,1,0,0,2.1,2.1,0,0,1,.78.86.77.77,0,0,1,.1.23.43.43,0,0,1,.05.21.42.42,0,0,1,0,.14s0,0,0,0A.41.41,0,0,1,418.84,351.75Z" style="opacity: 0.4; transform-origin: 281.013px 367.728px;" class="animable"></path></g><path d="M418.84,351.75a2.12,2.12,0,0,1-1,1.57l-.12.07L397,365.34l-85.52,49.39-55.67,32.13,0,0a7,7,0,0,1-6.29,0l-1.79-1-79.9-46.14-20.93-12.08-1.66-.95a0,0,0,0,1,0,0,4.08,4.08,0,0,1-2.05-3.72v-.12a10.56,10.56,0,0,1,1.91-.33l18.74-1.86,97.25-9.69h0l15.18-1.52c3.34-.33,6.34-1.54,6.66-2.7L286,356.56v0L305,293l1.43-4.73v-.06a1.44,1.44,0,0,1,.13-.31,11.63,11.63,0,0,1,6.09,1.44l.2.11,4.55,2.64,100.15,57.81.05,0,.14.09.12.07a.07.07,0,0,1,0,0,2.1,2.1,0,0,1,.78.86.77.77,0,0,1,.1.23.43.43,0,0,1,.05.21.42.42,0,0,1,0,.14s0,0,0,0A.41.41,0,0,1,418.84,351.75Z" style="fill: rgb(236, 84, 36); transform-origin: 281.014px 367.748px;" id="ell81f92b3j9" class="animable"></path><g id="elie6b5ug64j"><path d="M417.53,353.52a1.37,1.37,0,0,0,.2-.13l.12-.07a2.09,2.09,0,0,0,1-1.57,2.12,2.12,0,0,0-1.25-1.85l-118.14,5.74-.25,2.39,97.86,7.31Z" style="opacity: 0.25; transform-origin: 359.03px 357.62px;" class="animable"></path></g><g id="el9zig6a85ff"><path d="M249.52,446.86a6.44,6.44,0,0,0,3.28.76,6.58,6.58,0,0,0,3-.74l0,0,55.67-32.13-41.87-36.36-9.95.35-12,67.11Z" style="opacity: 0.25; transform-origin: 279.56px 413.007px;" class="animable"></path></g><path d="M418.83,351.75a2.09,2.09,0,0,1-1,1.57l-.12.07L255.85,446.86l0,0a6.58,6.58,0,0,1-3,.74l9.1-84.15c.37-3.49,8.38-6.35,18.79-6.73Z" style="fill: rgb(236, 84, 36); transform-origin: 335.84px 399.675px;" id="elydimr4f7nco" class="animable"></path><g id="eluqo1j3lr3wa"><path d="M306.54,287.86l-.52,5-6.6,63,0,.19-.16,1.54-1.43,13.69c-.37,3.49-8.37,6.36-18.8,6.74l-9.35.34h0l-9.38.34h-.56l-95.53,3.44-21,.77v-.12a4,4,0,0,1,1.57-3l0,0L161.63,370,293.7,293.79l7.58-4.38s0,0,0,0a11.43,11.43,0,0,1,5.15-1.52Z" style="opacity: 0.25; transform-origin: 224.875px 335.385px;" class="animable"></path></g><path d="M306.45,287.87l0,.3v.06l-.78,4.68-10.38,63.18,0,.12-.17,1.06-1.91,11.63c-.54,3.29-7.84,6-17.55,6.55l-8.74.48h0l-6.33.36-.39,0-96.05,5.37-20.88,1.16v0a4,4,0,0,1,1.57-3l0,0L161.63,370,293.7,293.79l7.58-4.38s0,0,0,0A11.43,11.43,0,0,1,306.45,287.87Z" style="fill: rgb(236, 84, 36); transform-origin: 224.86px 335.345px;" id="elnmzo0tj4pr" class="animable"></path><path d="M286.91,383.2c-7.66,0-12.1-1.41-14.06-2.25-3.36-1.44-5.49-3.79-5.83-6.44-.3-2.33.76-4.56,3-6.3a17.48,17.48,0,0,1,10.53-3.12c.56,0,1.11,0,1.66.06a5.86,5.86,0,0,1,.09-1.77c.47-2.18,2.21-4,4.89-5.08a16.6,16.6,0,0,1,6.24-1.13,18.85,18.85,0,0,1,10.94,3.29c1.8,1.35,7.42,6.49,4.14,16L306.91,381l-7.63,1.19a82.31,82.31,0,0,1-12.37,1Z" style="fill: rgb(250, 250, 250); transform-origin: 288.244px 370.184px;" id="el3xelku7h0gc" class="animable"></path><path d="M287.94,360.15c-4,1.64-4.89,4.89-2.28,7.63-4.91-1.41-11-.63-14.42,2-3.79,2.95-2.72,7.13,2.4,9.32,2.58,1.1,10.21,3.42,25.33,1.08l6.45-1,1.19-3.41c2.76-8-1.49-12.25-3.45-13.72A17.27,17.27,0,0,0,287.94,360.15Z" style="fill: rgb(69, 90, 100); transform-origin: 288.244px 370.186px;" id="elz64062e2xw7" class="animable"></path></g></g><g id="freepik--Stamps--inject-141" class="animable" style="transform-origin: 76.3783px 359.12px;"><g id="freepik--mail-stamp--inject-141" class="animable" style="transform-origin: 56.4683px 347.295px;"><path d="M28.85,343.53l1.08.05c1.4.06,2.56-.61,2.45-1.42l-.08-.62c-.11-.81,1.05-1.48,2.45-1.41l1.08,0c1.39.06,2.55-.61,2.45-1.41l-.09-.62c-.1-.81,1.06-1.48,2.45-1.42l1.08,0c1.4.06,2.56-.61,2.45-1.41l-.08-.63c-.11-.8,1-1.47,2.45-1.41l1.08,0c1.39.07,2.56-.6,2.45-1.41l-.08-.62c-.11-.81,1-1.48,2.44-1.42l1.76.08a2.44,2.44,0,0,0,2.4-1l.12-.31c.47-1.25,3.43-1.42,4.32-.25h0a2.84,2.84,0,0,0,2.41.77l1.3-.1c1.5-.13,2.79.62,2.58,1.49h0c-.22.86,1.07,1.61,2.57,1.49h0c1.51-.13,2.8.62,2.58,1.48h0c-.21.87,1.08,1.62,2.58,1.49h0c1.51-.12,2.8.62,2.58,1.49h0c-.21.87,1.08,1.62,2.58,1.49h0c1.51-.12,2.8.62,2.58,1.49h0c-.21.87,1.08,1.61,2.58,1.49h0c1.51-.12,2.8.62,2.58,1.49l-.18.75c-.14.58.4,1.15,1.34,1.39h0c2,.51,1.73,2.22-.43,2.5l-.54.06c-1.11.14-1.88.74-1.79,1.39l.13,1c.11.81-1,1.48-2.45,1.42L83,351c-1.39-.06-2.55.61-2.45,1.41l.09.63c.1.8-1.06,1.47-2.45,1.41l-1.08,0c-1.4-.06-2.56.61-2.45,1.42l.08.62c.11.81-1,1.48-2.45,1.41l-1.08,0c-1.39-.06-2.55.61-2.45,1.41l.08.63c.11.8-1,1.47-2.44,1.41l-1.09,0c-1.39-.06-2.55.61-2.44,1.41l.08.63c.1.8-1.06,1.47-2.45,1.41l-1.75-.07a2.46,2.46,0,0,0-2.41,1l-.11.31c-.47,1.25-3.43,1.42-4.32.25h0a2.87,2.87,0,0,0-2.41-.78l-1.29.11c-1.51.12-2.79-.62-2.58-1.49h0c.21-.87-1.08-1.61-2.58-1.49h0c-1.5.12-2.79-.62-2.58-1.49h0c.21-.87-1.08-1.61-2.58-1.49h0c-1.5.13-2.79-.62-2.58-1.49h0c.21-.87-1.07-1.61-2.58-1.49h0c-1.5.13-2.79-.62-2.58-1.49h0c.21-.86-1.07-1.61-2.58-1.49h0c-1.5.13-2.79-.62-2.58-1.48l.19-.75c.14-.59-.41-1.15-1.35-1.39h0c-2-.51-1.74-2.22.43-2.49l.54-.07c1.11-.14,1.87-.73,1.78-1.38l-.13-1C26.3,344.14,27.46,343.47,28.85,343.53Z" style="fill: rgb(250, 250, 250); transform-origin: 56.4683px 347.295px;" id="el7nxziumb8d7" class="animable"></path><path d="M30.29,346l24-13.88c2.29-1.32,5.54-1.59,7.25-.6L83.65,344.3c1.72,1,1.26,2.87-1,4.19l-24,13.88c-2.29,1.32-5.54,1.59-7.26.6L29.25,350.23C27.53,349.23,28,347.36,30.29,346Z" style="fill: rgb(236, 84, 36); transform-origin: 56.4528px 347.245px;" id="elnch6fkq1hc" class="animable"></path><path d="M67.57,344.47a.44.44,0,0,1-.26,0l-3.76-.46-10.47-2.87c-.17-.05-.28-.15-.26-.27l.27-1.6-.23-.13-.63.36a.49.49,0,0,1-.41,0c-.11-.07-.11-.18,0-.24l.71-.41a.74.74,0,0,1,.65,0l.36.21c.1.06.15.13.13.21l-.27,1.59,10.36,2.84,3.66.44c.16,0,.26.1.23.2A.15.15,0,0,1,67.57,344.47Z" style="fill: rgb(69, 90, 100); transform-origin: 59.6964px 341.632px;" id="elyltpc64vh6n" class="animable"></path><path d="M72.31,347.21a10.94,10.94,0,0,1-9.86,0c-2.73-1.58-2.74-4.13,0-5.69a10.91,10.91,0,0,1,9.86,0C75,343.09,75,345.64,72.31,347.21ZM63,341.81c-2.41,1.39-2.4,3.66,0,5.06a9.71,9.71,0,0,0,8.77,0c2.41-1.39,2.4-3.66,0-5.06A9.69,9.69,0,0,0,63,341.81Z" style="fill: rgb(240, 240, 240); transform-origin: 67.3631px 344.363px;" id="elvhcz6e2z30t" class="animable"></path><path d="M72.81,341.36a.26.26,0,0,1-.27,0,11.55,11.55,0,0,0-10.39,0c-2.85,1.65-2.83,4.34,0,6,.07,0,.08.11,0,.16a.32.32,0,0,1-.27,0c-3-1.75-3-4.58,0-6.31a12.06,12.06,0,0,1,10.93,0C72.89,341.25,72.89,341.32,72.81,341.36Z" style="fill: rgb(236, 84, 36); transform-origin: 66.25px 343.725px;" id="elfwsj4x18l08" class="animable"></path><g id="eltseenlof5de"><path d="M72.81,341.36a.26.26,0,0,1-.27,0,11.55,11.55,0,0,0-10.39,0c-2.85,1.65-2.83,4.34,0,6,.07,0,.08.11,0,.16a.32.32,0,0,1-.27,0c-3-1.75-3-4.58,0-6.31a12.06,12.06,0,0,1,10.93,0C72.89,341.25,72.89,341.32,72.81,341.36Z" style="opacity: 0.2; transform-origin: 66.25px 343.725px;" class="animable"></path></g><path d="M56.86,350.58a.34.34,0,0,1-.28,0,11.47,11.47,0,0,0-10.38,0c-2.85,1.64-2.84,4.33,0,6,.08,0,.08.11,0,.16a.34.34,0,0,1-.28,0c-3-1.75-3-4.58,0-6.31a12.06,12.06,0,0,1,10.93,0C56.93,350.46,56.93,350.53,56.86,350.58Z" style="fill: rgb(236, 84, 36); transform-origin: 50.2907px 352.945px;" id="elh51ebbd19f4" class="animable"></path><g id="ela159a6mlwl"><path d="M56.86,350.58a.34.34,0,0,1-.28,0,11.47,11.47,0,0,0-10.38,0c-2.85,1.64-2.84,4.33,0,6,.08,0,.08.11,0,.16a.34.34,0,0,1-.28,0c-3-1.75-3-4.58,0-6.31a12.06,12.06,0,0,1,10.93,0C56.93,350.46,56.93,350.53,56.86,350.58Z" style="opacity: 0.2; transform-origin: 50.2907px 352.945px;" class="animable"></path></g><path d="M56.36,356.42a10.94,10.94,0,0,1-9.86,0c-2.73-1.57-2.75-4.13,0-5.69a10.88,10.88,0,0,1,9.86,0C59.05,352.3,59.07,354.85,56.36,356.42ZM47,351c-2.41,1.39-2.4,3.67,0,5.07a9.71,9.71,0,0,0,8.77,0c2.41-1.39,2.39-3.66,0-5.06A9.71,9.71,0,0,0,47,351Z" style="fill: rgb(240, 240, 240); transform-origin: 51.415px 353.571px;" id="elitzxe8a4m6" class="animable"></path><path d="M59.3,350.4h0l-7.69,3.29a.48.48,0,0,1-.29,0,.2.2,0,0,1-.17-.14L50.56,348c0-.09.11-.17.27-.18s.3.07.31.16l.53,5.23,7.12-3L58,342.45c0-.1.11-.17.27-.18s.3.07.31.16l.79,7.84A.12.12,0,0,1,59.3,350.4Z" style="fill: rgb(69, 90, 100); transform-origin: 54.9658px 347.991px;" id="el77acsop5y24" class="animable"></path><path d="M59.3,350.4a.46.46,0,0,1-.33,0L46.57,347c-.14,0-.21-.14-.14-.22a.42.42,0,0,1,.39-.08l12.4,3.4c.14,0,.2.14.14.22Z" style="fill: rgb(69, 90, 100); transform-origin: 52.8929px 348.556px;" id="elzrv45xfmmyr" class="animable"></path><path d="M57.48,349.9h0l-6,2.92a.46.46,0,0,1-.41,0c-.1-.07-.08-.18,0-.23l6-2.93a.43.43,0,0,1,.4,0A.12.12,0,0,1,57.48,349.9Z" style="fill: rgb(69, 90, 100); transform-origin: 54.2987px 351.239px;" id="ellawcgu8wdyd" class="animable"></path><path d="M46.52,346.07a4.44,4.44,0,0,0-1.28.57c-.6.38-.71.72-.19,1.06a.43.43,0,0,0,.44,0,2.41,2.41,0,0,1,.66-.37A2.24,2.24,0,0,0,47,347c.2-.17.26-.51.61-.82a5.56,5.56,0,0,1,1-.6l.23-.16c.12-.08.08-.2-.09-.25a1.28,1.28,0,0,0-.9,0C47.48,345.38,47.06,345.85,46.52,346.07Z" style="fill: rgb(236, 84, 36); transform-origin: 46.8133px 346.424px;" id="eljtousub4ai" class="animable"></path><g id="elociqz7kg8p8"><path d="M46.52,346.07a4.44,4.44,0,0,0-1.28.57c-.6.38-.71.72-.19,1.06a.43.43,0,0,0,.44,0,2.41,2.41,0,0,1,.66-.37A2.24,2.24,0,0,0,47,347c.2-.17.26-.51.61-.82a5.56,5.56,0,0,1,1-.6l.23-.16c.12-.08.08-.2-.09-.25a1.28,1.28,0,0,0-.9,0C47.48,345.38,47.06,345.85,46.52,346.07Z" style="opacity: 0.2; transform-origin: 46.8133px 346.424px;" class="animable"></path></g><path d="M56.42,349.61a.43.43,0,0,1-.32,0c-.15,0-.21-.13-.15-.22,2.13-2.78,1.7-5.41-1.28-7.82-.09-.07-.06-.17.07-.23a.46.46,0,0,1,.4,0c3.11,2.51,3.56,5.25,1.34,8.15A.1.1,0,0,1,56.42,349.61Z" style="fill: rgb(69, 90, 100); transform-origin: 56.2417px 345.468px;" id="el9nvzsq9l47" class="animable"></path><path d="M58.85,345.93a.35.35,0,0,1-.18.05l-1.06.06c-.16,0-.3-.06-.32-.15s.1-.17.26-.18l1.06-.06c.16,0,.3.06.32.15A.12.12,0,0,1,58.85,345.93Z" style="fill: rgb(69, 90, 100); transform-origin: 58.1095px 345.845px;" id="ellqmy3cryyhf" class="animable"></path><path d="M60.36,351a2.79,2.79,0,0,1-2.53,0c-.7-.41-.7-1.06,0-1.46a2.79,2.79,0,0,1,2.53,0C61.06,350,61.06,350.61,60.36,351Zm-2.25-1.3c-.54.31-.53.82,0,1.13a2.13,2.13,0,0,0,2,0,.6.6,0,0,0,0-1.13A2.15,2.15,0,0,0,58.11,349.71Z" style="fill: rgb(240, 240, 240); transform-origin: 59.095px 350.27px;" id="elsdlcws5q7x" class="animable"></path><path d="M63.2,350.1a.21.21,0,0,1-.12,0l-4,.26c-.11,0-.22,0-.23-.11s.07-.12.18-.13l4-.26c.11,0,.21,0,.23.11S63.24,350.08,63.2,350.1Z" style="fill: rgb(240, 240, 240); transform-origin: 61.0572px 350.11px;" id="elmt89eibyjj" class="animable"></path><path d="M63.65,349.84l-1.07.62a.3.3,0,0,1-.29,0,.08.08,0,0,1,0-.16l1.08-.62a.28.28,0,0,1,.28,0A.08.08,0,0,1,63.65,349.84Z" style="fill: rgb(236, 84, 36); transform-origin: 62.97px 350.07px;" id="elal3wi3bib" class="animable"></path><g id="ell4qchdmcr3k"><path d="M63.65,349.84l-1.07.62a.3.3,0,0,1-.29,0,.08.08,0,0,1,0-.16l1.08-.62a.28.28,0,0,1,.28,0A.08.08,0,0,1,63.65,349.84Z" style="opacity: 0.2; transform-origin: 62.97px 350.07px;" class="animable"></path></g><path d="M51,340c-.34-.19-.38-.49-.09-.66a1.29,1.29,0,0,1,1.16.05c.34.2.38.49.09.66A1.29,1.29,0,0,1,51,340Z" style="fill: rgb(236, 84, 36); transform-origin: 51.535px 339.695px;" id="elo1bwklhktbc" class="animable"></path><g id="el760fydvbpcd"><path d="M51,340c-.34-.19-.38-.49-.09-.66a1.29,1.29,0,0,1,1.16.05c.34.2.38.49.09.66A1.29,1.29,0,0,1,51,340Z" style="opacity: 0.4; transform-origin: 51.535px 339.695px;" class="animable"></path></g><path d="M51.78,339.91l-1.78,1c-.23.13-.81-.2-.58-.33l1.78-1C51.4,339.46,52,339.79,51.78,339.91Z" style="fill: rgb(236, 84, 36); transform-origin: 50.5974px 340.247px;" id="elowwj9fdar8b" class="animable"></path><g id="el0pji8nt3gvl"><path d="M51.78,339.91l-1.78,1c-.23.13-.81-.2-.58-.33l1.78-1C51.4,339.46,52,339.79,51.78,339.91Z" style="opacity: 0.2; transform-origin: 50.5974px 340.247px;" class="animable"></path></g><path d="M67,344.55a.21.21,0,0,1,0-.4.77.77,0,0,1,.68,0,.21.21,0,0,1,0,.39A.76.76,0,0,1,67,344.55Z" style="fill: rgb(240, 240, 240); transform-origin: 67.3331px 344.348px;" id="elc410qc48drl" class="animable"></path><path d="M51.07,353.76c-.19-.11-.19-.29,0-.39a.74.74,0,0,1,.68,0c.19.11.19.28,0,.39A.74.74,0,0,1,51.07,353.76Z" style="fill: rgb(240, 240, 240); transform-origin: 51.41px 353.565px;" id="el963fq2ea4is" class="animable"></path></g><g id="freepik--mail-stamp--inject-141" class="animable" style="transform-origin: 96.265px 371.09px;"><path d="M68.67,367.44l1.08.05c1.4.06,2.56-.61,2.45-1.41l-.08-.63c-.11-.8,1-1.47,2.45-1.41l1.08,0c1.39.06,2.55-.61,2.45-1.42l-.08-.62c-.11-.81,1-1.48,2.44-1.42l1.09.05c1.39.06,2.55-.61,2.44-1.41l-.08-.63c-.1-.8,1.06-1.47,2.45-1.41l1.08,0c1.4.06,2.56-.61,2.45-1.42l-.08-.62c-.11-.8,1-1.47,2.45-1.41l1.75.07a2.44,2.44,0,0,0,2.4-1l.12-.31c.47-1.25,3.43-1.42,4.32-.25h0a2.86,2.86,0,0,0,2.41.78l1.29-.11c1.5-.12,2.79.62,2.58,1.49h0c-.22.87,1.07,1.61,2.58,1.49h0c1.5-.13,2.79.62,2.58,1.49h0c-.22.87,1.07,1.61,2.58,1.49h0c1.5-.13,2.79.62,2.58,1.49h0c-.22.86,1.07,1.61,2.58,1.49h0c1.5-.13,2.79.62,2.58,1.49h0c-.21.86,1.08,1.61,2.58,1.48h0c1.51-.12,2.8.63,2.58,1.49l-.18.75c-.14.58.41,1.15,1.34,1.39h0c2,.51,1.73,2.22-.43,2.49l-.54.07c-1.11.14-1.87.73-1.79,1.38l.13,1c.11.8-1,1.47-2.44,1.41l-1.09-.05c-1.39-.06-2.55.61-2.44,1.41l.08.63c.1.8-1.06,1.47-2.45,1.41l-1.08,0c-1.4-.07-2.56.6-2.45,1.41l.08.62c.11.81-1,1.48-2.45,1.42l-1.08-.05c-1.39-.06-2.55.61-2.45,1.41l.09.63c.1.8-1.06,1.47-2.45,1.41l-1.08-.05c-1.4-.06-2.56.61-2.45,1.42l.08.62c.11.81-1,1.48-2.45,1.42l-1.75-.08a2.43,2.43,0,0,0-2.4,1l-.12.31c-.47,1.25-3.43,1.42-4.32.25h0a2.83,2.83,0,0,0-2.41-.77l-1.29.1c-1.5.13-2.79-.62-2.58-1.49h0c.22-.87-1.07-1.61-2.58-1.49h0c-1.5.13-2.79-.62-2.58-1.49h0c.22-.86-1.07-1.61-2.58-1.48h0c-1.5.12-2.79-.63-2.58-1.49h0c.22-.87-1.07-1.62-2.58-1.49h0c-1.5.12-2.79-.62-2.58-1.49h0c.22-.87-1.07-1.62-2.58-1.49h0c-1.5.12-2.79-.62-2.58-1.49l.19-.75c.14-.58-.41-1.15-1.35-1.39h0c-2-.52-1.73-2.22.43-2.5l.54-.06c1.11-.14,1.87-.74,1.79-1.39l-.14-1C66.12,368.05,67.28,367.38,68.67,367.44Z" style="fill: rgb(250, 250, 250); transform-origin: 96.265px 371.09px;" id="el9wb6oyawac" class="animable"></path><path d="M70.11,370l24-13.88c2.29-1.32,5.54-1.59,7.26-.6l22.06,12.74c1.72,1,1.26,2.87-1,4.19l-24,13.88c-2.29,1.32-5.54,1.59-7.26.6L69.07,374.14C67.36,373.15,67.82,371.27,70.11,370Z" style="fill: rgb(69, 90, 100); transform-origin: 96.255px 371.225px;" id="elv43ogef6nbj" class="animable"></path><path d="M104.75,364.88a.85.85,0,0,0-.64-1.1,3.11,3.11,0,0,0-2.07.4s-.54-.51-2.12-.36-2.61.8-3.53,2.78a3.33,3.33,0,0,0-.18.57,3.36,3.36,0,0,0-.66-1.34c-.67-.85-2.14-2.63-4.43-2.44s-2,1-2,1a3.08,3.08,0,0,0-2,0c-.74.42,0,1.26,0,1.26a1.56,1.56,0,0,0-1.25,1.06c-.25.93.47,1.65,3.6,2.62.9.28,1.87.54,2.81.77-1.69-.13-3.48-.25-4.23-.27-1.62,0-5.07.14-5.47,1.45s1,1.39,1,1.39-1.06.57-.6,1.1,2.09.38,2.09.38-.09.6,1.34,1,2.87.25,5.44-1.16c.69-.38,1.37-.8,2-1.22-.72.88-1.46,1.8-1.72,2.2-.57.88-1.34,2.83.7,3.45s2.61-.14,2.61-.14a2,2,0,0,0,1.63.67,1.43,1.43,0,0,0,1.27-1,3,3,0,0,0,2.08-.42c1.15-.68,1.3-1.5-.24-3.35a21.3,21.3,0,0,0-1.54-1.63c1.24.68,2.56,1.39,3.16,1.66,1.26.58,4.24,1.61,5.9.68s.57-1.47.57-1.47,1.43-.1,1.61-.69-1.3-1-1.3-1,.67-.45-.06-1.27-2.21-1.36-5.73-1.08l-.58,0a14.31,14.31,0,0,0,1.94-.69c1.37-.66,3.78-1.87,2.77-3.06A2.29,2.29,0,0,0,104.75,364.88Z" style="fill: rgb(240, 240, 240); transform-origin: 96.2016px 371.165px;" id="elo5lmrb1h8pi" class="animable"></path><path d="M102.35,366.29a10.54,10.54,0,0,0-4.15,2c-.66.49-2,1.51-1.39,2.19.07.08.28.08.4.05,1.19-.3,1.61-1.28,2.27-1.89a29.22,29.22,0,0,1,3.13-2.06C102.79,366.42,102.64,366.25,102.35,366.29Z" style="fill: rgb(224, 224, 224); transform-origin: 99.6714px 368.416px;" id="elxhllz9btqb" class="animable"></path><path d="M96.35,371v0l-.11.07a.41.41,0,0,0-.09-.26c.16,0,.3-.14.31-.24.24-1.87-3.74-3.83-6.48-4.36-.08,0-.44.05-.3.12a22.32,22.32,0,0,1,3.55,2.29c.67.55,1.26,1.4,2,2l-.56,0a12.14,12.14,0,0,0-2.43.23c-1.91.37-4.53,1-5.61,2.09-.12.12.27.11.36.08a23.09,23.09,0,0,1,4.55-1.07,11.8,11.8,0,0,1,3.51-.13,1,1,0,0,0,.69-.09,6.65,6.65,0,0,0-.56,2.25,2.62,2.62,0,0,0,1.15,2.44c.16.11.69,0,.57-.17-.31-.34-.17-.88-.24-1.28a5.51,5.51,0,0,1,.43-2.77l.15-.37v0l.06-.1c.75.12,1.72.11,2.19.14a22.2,22.2,0,0,1,5.07.83c.15.05.58,0,.42-.17a12,12,0,0,0-4.74-1.65C99.37,370.65,96.65,370.07,96.35,371Z" style="fill: rgb(224, 224, 224); transform-origin: 95.8112px 371.337px;" id="elijpikadzay" class="animable"></path><path d="M97.94,369.87a1,1,0,0,1,0,1.85,3.5,3.5,0,0,1-3.21,0,1,1,0,0,1,0-1.85A3.5,3.5,0,0,1,97.94,369.87Z" style="fill: rgb(236, 84, 36); transform-origin: 96.335px 370.795px;" id="el7b65cvry9xd" class="animable"></path><g id="elsaxppbdhtjl"><path d="M96.79,371.57a2.67,2.67,0,0,1-2.68-1c-.15.42.06.86.62,1.18a3.5,3.5,0,0,0,3.21,0c.58-.33.78-.8.6-1.23A2,2,0,0,1,96.79,371.57Z" style="opacity: 0.05; transform-origin: 96.3335px 371.33px;" class="animable"></path></g></g></g><g id="freepik--Character--inject-141" class="animable" style="transform-origin: 374.803px 173.302px;"><g id="freepik--character--inject-141" class="animable" style="transform-origin: 374.803px 173.302px;"><path d="M378.26,112.69c-3.49-2.83-12.34-8.37-14.85-10-2.9-1.89-6.73-4.57-9.53-6.59,0,0-11.3-18.08-11.4-19.84L340,69.46c-.37-1.09,0-3.74.22-5.42.23-1.87.68-3.5.81-4.31.53-3.2-4.07-4.67-6.15-3.1a11,11,0,0,0-3.55,5.25c-2.64,8,2.63,17.39,2.63,17.39s7.45,16.89,9,19.93a18.89,18.89,0,0,0,4.37,6.2s13.57,11,16.49,13.2c3.66,2.79,5.18,4.13,7.75,4.67,1.43.29,1.44.26,5.67.28a14.13,14.13,0,0,0,1.23-3.61C378.55,119,379,113.3,378.26,112.69Z" style="fill: rgb(177, 102, 104); transform-origin: 354.634px 89.7736px;" id="el8365kcqwyp8" class="animable"></path><path d="M365.12,120.26l5.05,3.84L382.06,113c-1.46-1.19-4.53-2.45-7.27-3.78-1.41-.68-3-1.42-5.13-2.7C369.66,106.49,365.17,112.85,365.12,120.26Z" style="fill: rgb(69, 90, 100); transform-origin: 373.59px 115.31px;" id="eljxt1qiekood" class="animable"></path><g id="freepik--letter--inject-141" class="animable" style="transform-origin: 332.714px 59.3644px;"><path d="M314.83,53.69a.56.56,0,0,1,.41-.67l28-7.57a1.88,1.88,0,0,1,1.23.23l.77.43a1.76,1.76,0,0,1,.81.92l4.52,18a.56.56,0,0,1-.41.68l-28,7.57a2,2,0,0,1-1.23-.23l-.77-.43a1.84,1.84,0,0,1-.81-.92Z" style="fill: rgb(236, 84, 36); transform-origin: 332.701px 59.3627px;" id="el4x8gl5li2l" class="animable"></path><g id="elfij668nb9zs"><path d="M314.89,53.28l1.94,1.08,29-7.82a2.13,2.13,0,0,0-.52-.43l-.77-.43a1.89,1.89,0,0,0-1.23-.23l-28,7.57A.58.58,0,0,0,314.89,53.28Z" style="fill: rgb(255, 255, 255); opacity: 0.4; transform-origin: 330.36px 49.894px;" class="animable"></path></g><g id="elg4ngls2kmgj"><path d="M314.83,53.69l4.52,18a1.76,1.76,0,0,0,.81.92l.77.43.18.09.27.09a2.83,2.83,0,0,0,.48.08H322a.6.6,0,0,1-.3-.06.57.57,0,0,1-.26-.34l-4.52-18a.24.24,0,0,1,.22-.33l-.35-.2-1.94-1.08A.53.53,0,0,0,314.83,53.69Z" style="opacity: 0.2; transform-origin: 318.4px 63.2955px;" class="animable"></path></g><g id="elar984jwp94s"><path d="M316.83,54.36l15.58,6.85c1.11.49,2.2.43,2.63-.15l1.67-2.23,9.19-12.32L337.2,59l13.41,6a.51.51,0,0,1-.07.42l-13.36-6.43-1.9,2.73c-.44.63-1.63.68-2.8.12l-2.09-1-8.65,12.37a.57.57,0,0,1-.26-.34l-.08-.3,8.92-11.76Z" style="opacity: 0.2; transform-origin: 333.729px 59.86px;" class="animable"></path></g></g><path d="M344.14,69c.1-1.78-.32-3.52.06-5.29.09-.44.12-1.06-.32-1.16a.68.68,0,0,0-.37,0A3.48,3.48,0,0,0,341.45,65c-.32.93-.51,2.74-1.81,3.67l3,8C342.49,74.63,344,71.69,344.14,69Z" style="fill: rgb(177, 102, 104); transform-origin: 341.947px 69.5972px;" id="el61r7ybyew2n" class="animable"></path><path d="M382.91,273.79a.63.63,0,0,1,.46.46,30.47,30.47,0,0,1,.47,3.06,15.91,15.91,0,0,1,.39,5c-.26,1.24-1.94,2.45-5.1,3.35a21.72,21.72,0,0,0-6.86,3.6,16,16,0,0,1-8.73,3.26c-3.23.09-6.59-.77-7.37-3.09-.33-1-.58-2.65,4-4.46a27.64,27.64,0,0,0,4.5-2.12c2.15-1.26,5.36-2.93,7.14-4.59a9.13,9.13,0,0,0,2.63-6.15,3.88,3.88,0,0,1,5.1,4.1c.22.13.49-.08.57-.32a4.65,4.65,0,0,0,.08-.75,1.57,1.57,0,0,1,1.06-1.13A3.07,3.07,0,0,1,382.91,273.79Z" style="fill: rgb(55, 71, 79); transform-origin: 370.147px 282.216px;" id="elz5j98hp0bz" class="animable"></path><path d="M427.08,273.9a6.92,6.92,0,0,0-.4,2.22,14.42,14.42,0,0,0-.26,1.88c0,.56-.13,1.23-.65,1.44a1.16,1.16,0,0,1-1.18-.39,10.42,10.42,0,0,1-.74-1.09,3.18,3.18,0,0,0-2.36-1.28c-.93-.05-1,0-1.61.72.07.17.46,1.09.53,1.27a21,21,0,0,1,.78,13.29,10.26,10.26,0,0,1-2.38,3.29,15.63,15.63,0,0,1-1.43,1.27,2.29,2.29,0,0,0-.95,1.14,2.58,2.58,0,0,0,.28,1.57,2.86,2.86,0,0,0,1.75,1.28,11.26,11.26,0,0,0,8.33-.28,7.52,7.52,0,0,0,2.82-2.37c1.55-2.7,1.38-5.27,1.4-7.59a51.3,51.3,0,0,1,1.3-10.35C432.81,276.82,428.05,273.43,427.08,273.9Z" style="fill: rgb(55, 71, 79); transform-origin: 424.376px 287.516px;" id="elf5dmjft9dt" class="animable"></path><path d="M372.34,276.69c1.9-2.06,2.27-4,2-7.85s-2.17-37.51-3-45.83c-1.3-14-2-53.23-.8-62.92L407.84,163c2.71,6.77,4.69,15.09,4.27,28.16-.32,10-.08,37-.08,37A33.91,33.91,0,0,1,419.82,240c2.87,6.93,6.17,30.87,6.17,30.87h0a23,23,0,0,0,1.09,3,5.9,5.9,0,0,1,1.34,3.49,58.66,58.66,0,0,1-1.31,12.32,5.73,5.73,0,0,1-3.85,4.27,3.31,3.31,0,0,1-1.46.24,1.1,1.1,0,0,1-.7-.26c-.36-.36,0-1.19,0-1.61a15.78,15.78,0,0,0,.19-2.05c0-1.35,0-3-.09-4.33a44.06,44.06,0,0,0-1.45-8.92l-.72-1.73h0s-16.17-32.59-20.76-40.54c-3.65-6.23-6.07-30.43-8.66-43.67l-4.37,31.63a61.62,61.62,0,0,1,2.42,10.08c.68,5.87-3.47,28.86-4.71,37a16.73,16.73,0,0,0-.05,4.58h0c-.44,3.54-3.1,4.63-5.84,6.64-1.37,1-7.38,4.65-11,5.39-2.95.59-5.21-1.18-3.4-2.31C366.11,281.82,370.44,278.74,372.34,276.69Z" style="fill: rgb(177, 102, 104); transform-origin: 395.216px 227.143px;" id="el4x86zwaa3ad" class="animable"></path><path d="M391.16,201.17c-.38-3.56-1.41-8.42-1.41-8.42l-1.2,8.22-1.8,21.22a61.94,61.94,0,0,1,1.17,6.4,60.15,60.15,0,0,1-.46,15.57c-.77,4.54-2.38,12.69-2.38,12.69-6.76,3.53-11.88-.09-11.88-.09s-.66-9.08-1.91-22.41-1.7-26.64-1.79-37.71c0,0-1.6-27.6,3.06-46.23,5.48,3.86,21.76,4.63,28.33-.55,0,0,2.63,4.35,8.38,14.07,4.51,7.62,3.19,19.88,3.26,30.12.13,15.8,0,33.65,0,33.65a50.51,50.51,0,0,1,5.58,7.48c2.88,4.64,4.35,14.95,4.35,14.95s-2.91,6.18-12.83,6.45c0,0-9.65-17.57-12.07-21.55S391.53,204.72,391.16,201.17Z" style="fill: rgb(55, 71, 79); transform-origin: 395.847px 204.128px;" id="el9t57etzk4ss" class="animable"></path><path d="M389.75,192.75l-3.62-13.95a28.68,28.68,0,0,1-12.35-4.71s1.11,5.1,10.67,6.6l4.12,13.69-.24,8.41Z" style="fill: rgb(38, 50, 56); transform-origin: 381.765px 188.44px;" id="elka9fu60u4k" class="animable"></path><path d="M368.86,125.7c3.62-5.61,10.84-10.94,13.19-12.8l13.65.1c2.68.14,6.6.49,6.6.49,2.85,1.51,2.71,5,2.8,8.37a45.37,45.37,0,0,1-.87,11.31l-1.84,7.7-.28,1.18c-.05.2-.09.41-.14.62a12.6,12.6,0,0,0,1.09,8.75c3.13,6,6.82,10.47,7.87,15.48a10.82,10.82,0,0,1-4.72-2.72,31.53,31.53,0,0,1-4.84-5.1s-.16,3.39-3.53,7.84a18.93,18.93,0,0,1-2.95,3.1c-6.05,5.07-24.25,7.27-24.85-8.61,0,0,.69-7.23.8-12.6-.11-4.82-.49-8.72-.53-9.83C366.16,135.24,366.22,129.77,368.86,125.7Z" style="fill: rgb(236, 84, 36); transform-origin: 388.971px 143.331px;" id="el5ig5gu6nohq" class="animable"></path><g id="el0ifwwcc51zxi"><path d="M376.9,138.36s4.48,4,10,2.4a9.25,9.25,0,0,0,6.59-6.22s.18,6.19-6.74,7.85A8.92,8.92,0,0,1,376.9,138.36Z" style="opacity: 0.1; transform-origin: 385.195px 138.605px;" class="animable"></path></g><path d="M393.4,72.85a20.48,20.48,0,0,0-12.61,1c-12.42-3.2-19.18,13.85-7.54,19.7,0,0,2.57,11.91,12.19,13.19l9.5.25c2.33-4.26,9.93-6.26,10.59-17.35C406.76,80.37,399.74,74.16,393.4,72.85Z" style="fill: rgb(38, 50, 56); transform-origin: 386.455px 89.639px;" id="elly2bsy78t5" class="animable"></path><g id="el22xg1f71bj7"><path d="M405.4,83.27h.4a10,10,0,0,1,10,10v19.13a0,0,0,0,1,0,0h-.4a10,10,0,0,1-10-10V83.27a0,0,0,0,1,0,0Z" style="fill: rgb(38, 50, 56); transform-origin: 410.6px 97.835px; transform: rotate(-3.53deg);" class="animable"></path></g><path d="M376.42,80.27c-1.92,1.19-4.23,6.12-3.8,16.37.36,8.68,3.21,10.77,4.64,11.36s4.14.17,6.78-.32l.1,5.21s-3.32,2.65-3.05,5,5.6,3.18,9,.78a22.78,22.78,0,0,0,5-4.64l-.25-13.51s1.77,1.91,4.66-.09a5,5,0,0,0,.83-7.5,3.47,3.47,0,0,0-5.59,1.67s-3.77-.17-9.27-3.49C379.5,87.55,378,83.89,376.42,80.27Z" style="fill: rgb(177, 102, 104); transform-origin: 387.111px 100.191px;" id="elipahsbj9gcf" class="animable"></path><path d="M383.83,94A1.1,1.1,0,1,0,385,92.93,1.13,1.13,0,0,0,383.83,94Z" style="fill: rgb(38, 50, 56); transform-origin: 384.93px 94.0285px;" id="elp7xel7733e" class="animable"></path><path d="M382.72,101.61l-3.12,1.06a1.62,1.62,0,0,0,2.06,1.09A1.72,1.72,0,0,0,382.72,101.61Z" style="fill: rgb(154, 74, 77); transform-origin: 381.202px 102.725px;" id="elavoa0mvvlhs" class="animable"></path><path d="M374.23,91.07l2.18-1.57a1.29,1.29,0,0,0-1.84-.35A1.42,1.42,0,0,0,374.23,91.07Z" style="fill: rgb(38, 50, 56); transform-origin: 375.203px 89.9883px;" id="el82dxmf2vqg2" class="animable"></path><path d="M374.78,93.62a1.1,1.1,0,1,0,1.13-1.1A1.12,1.12,0,0,0,374.78,93.62Z" style="fill: rgb(38, 50, 56); transform-origin: 375.88px 93.6198px;" id="eluct5x3tfvzk" class="animable"></path><polygon points="380.11 92.9 380.06 99.48 376.57 98.47 380.11 92.9" style="fill: rgb(154, 74, 77); transform-origin: 378.34px 96.19px;" id="elhk5ecga6r1f" class="animable"></polygon><path d="M384,107.68c2.79-.42,8.5-2.18,9.36-4.46a5.85,5.85,0,0,1-2,2.93c-1.69,1.5-7.37,3.27-7.37,3.27Z" style="fill: rgb(154, 74, 77); transform-origin: 388.675px 106.32px;" id="ela36w2liork9" class="animable"></path><path d="M434.53,174.09s-1.76-19.77-2.23-23.54c-.57-4.5-1.46-6.23-2.63-7.92,0,0-10.84-17.27-13.37-20.49-3.17-4-4.56-6.36-7.19-7.66-1.46-.72-2.2-.83-6.31-1-4.16,12.14,3.19,19.31,3.19,19.31l14.74,18.48s5.36,21.48,5,23.41-1.8,4.4-2.57,6.79c-.51,1.61-.53,3.31-1.3,4.84-.19.38-.36.94,0,1.13a.6.6,0,0,0,.35.05,3.24,3.24,0,0,0,2.45-1.7c.52-.77.61-1.39,1.13-2.16a19.74,19.74,0,0,1-.62,4.73c-.2,1-.37,2.2-.57,3.09-.39,1.71,2.06,2.39,3.71,2a6,6,0,0,0,3.85-2.66C436,185.8,434.53,174.09,434.53,174.09Z" style="fill: rgb(177, 102, 104); transform-origin: 418.166px 153.518px;" id="ela7karot5i1q" class="animable"></path><path d="M402.27,113.48a25.69,25.69,0,0,1,6.07.4c2.16.58,3.9,2.54,6.23,5.49s5.37,7.66,5.37,7.66-6.49,6.25-12.83,7.72l-2.3-3.05a18.1,18.1,0,0,1-3.68-8.39A20,20,0,0,1,402.27,113.48Z" style="fill: rgb(69, 90, 100); transform-origin: 410.445px 124.097px;" id="ell9mfg9hls6o" class="animable"></path></g></g><defs>     <filter id="active" height="200%">         <feMorphology in="SourceAlpha" result="DILATED" operator="dilate" radius="2"></feMorphology>                <feFlood flood-color="#32DFEC" flood-opacity="1" result="PINK"></feFlood>        <feComposite in="PINK" in2="DILATED" operator="in" result="OUTLINE"></feComposite>        <feMerge>            <feMergeNode in="OUTLINE"></feMergeNode>            <feMergeNode in="SourceGraphic"></feMergeNode>        </feMerge>    </filter>    <filter id="hover" height="200%">        <feMorphology in="SourceAlpha" result="DILATED" operator="dilate" radius="2"></feMorphology>                <feFlood flood-color="#ff0000" flood-opacity="0.5" result="PINK"></feFlood>        <feComposite in="PINK" in2="DILATED" operator="in" result="OUTLINE"></feComposite>        <feMerge>            <feMergeNode in="OUTLINE"></feMergeNode>            <feMergeNode in="SourceGraphic"></feMergeNode>        </feMerge>            <feColorMatrix type="matrix" values="0   0   0   0   0                0   1   0   0   0                0   0   0   0   0                0   0   0   1   0 "></feColorMatrix>    </filter></defs></svg>